<svg width="1006" height="167" viewBox="0 0 1006 167" fill="none" xmlns="http://www.w3.org/2000/svg">
<g filter="url(#filter0_d_138_201)">
<mask id="path-1-outside-1_138_201" maskUnits="userSpaceOnUse" x="7" y="3" width="992" height="153" fill="black">
<rect fill="white" x="7" y="3" width="992" height="153"/>
<path d="M84.9023 152.2C69.3023 152.2 55.9023 149.2 44.7023 143.2C33.5023 137.2 24.9023 128.733 18.9023 117.8C13.0357 106.867 10.1023 94.0667 10.1023 79.4C10.1023 68.4667 11.769 58.5333 15.1023 49.6C18.569 40.6667 23.5023 33 29.9023 26.6C36.4357 20.2 44.3023 15.3333 53.5023 12C62.8357 8.53333 73.3023 6.8 84.9023 6.8C91.0357 6.8 97.369 7.53333 103.902 8.99999C110.569 10.3333 116.436 12.4 121.502 15.2C125.236 17.2 127.836 19.7333 129.302 22.8C130.769 25.8667 131.236 29 130.702 32.2C130.302 35.4 129.169 38.2667 127.302 40.8C125.436 43.3333 123.036 45.0667 120.102 46C117.169 46.8 113.969 46.3333 110.502 44.6C106.502 42.7333 102.502 41.3333 98.5024 40.4C94.6357 39.3333 90.569 38.8 86.3023 38.8C78.0357 38.8 71.1023 40.4 65.5023 43.6C60.0357 46.6667 55.9023 51.2 53.1023 57.2C50.3023 63.2 48.9023 70.6 48.9023 79.4C48.9023 88.2 50.3023 95.6667 53.1023 101.8C55.9023 107.8 60.0357 112.4 65.5023 115.6C71.1023 118.667 78.0357 120.2 86.3023 120.2C89.769 120.2 93.5023 119.8 97.5023 119C101.502 118.067 105.436 116.667 109.302 114.8C113.302 113.067 116.836 112.6 119.902 113.4C123.102 114.2 125.636 115.8 127.502 118.2C129.502 120.6 130.769 123.4 131.302 126.6C131.836 129.667 131.369 132.733 129.902 135.8C128.569 138.867 126.169 141.333 122.702 143.2C118.036 146 112.236 148.2 105.302 149.8C98.5023 151.4 91.7023 152.2 84.9023 152.2ZM169.798 151.8C163.931 151.8 159.398 150.2 156.198 147C152.998 143.667 151.398 139.067 151.398 133.2V27.6C151.398 21.6 152.998 17 156.198 13.8C159.531 10.6 164.131 8.99999 169.998 8.99999H219.198C235.198 8.99999 247.531 12.9333 256.198 20.8C264.998 28.5333 269.398 39.3333 269.398 53.2C269.398 62.1333 267.398 69.9333 263.398 76.6C259.531 83.1333 253.864 88.2 246.398 91.8C239.064 95.2667 229.998 97 219.198 97L220.798 93.4H230.398C236.131 93.4 241.198 94.8 245.598 97.6C249.998 100.267 253.664 104.4 256.598 110L266.598 128C268.731 131.867 269.731 135.667 269.598 139.4C269.464 143 267.998 146 265.198 148.4C262.531 150.667 258.598 151.8 253.398 151.8C248.198 151.8 243.931 150.733 240.598 148.6C237.398 146.467 234.531 143.133 231.998 138.6L213.798 105.2C212.198 102.267 210.131 100.267 207.598 99.2C205.198 98 202.398 97.4 199.198 97.4H188.198V133.2C188.198 139.067 186.664 143.667 183.598 147C180.531 150.2 175.931 151.8 169.798 151.8ZM188.198 71.4H212.598C219.664 71.4 225.064 70 228.798 67.2C232.531 64.4 234.398 60.0667 234.398 54.2C234.398 48.6 232.531 44.4 228.798 41.6C225.064 38.6667 219.664 37.2 212.598 37.2H188.198V71.4ZM311.009 151.8C305.142 151.8 300.609 150.2 297.409 147C294.209 143.667 292.609 139 292.609 133V26C292.609 19.8667 294.209 15.2 297.409 12C300.609 8.79999 305.142 7.19999 311.009 7.19999C317.009 7.19999 321.542 8.79999 324.609 12C327.809 15.2 329.409 19.8667 329.409 26V133C329.409 139 327.875 143.667 324.809 147C321.742 150.2 317.142 151.8 311.009 151.8ZM407.313 152.2C401.98 152.2 396.38 151.8 390.513 151C384.78 150.333 379.313 149.267 374.113 147.8C368.913 146.333 364.247 144.6 360.113 142.6C356.513 140.867 353.98 138.6 352.513 135.8C351.047 132.867 350.513 129.8 350.913 126.6C351.313 123.4 352.447 120.6 354.313 118.2C356.18 115.667 358.647 114 361.713 113.2C364.78 112.267 368.247 112.667 372.113 114.4C377.18 116.8 382.913 118.667 389.313 120C395.713 121.333 401.713 122 407.313 122C416.113 122 422.247 120.867 425.713 118.6C429.313 116.2 431.113 113.267 431.113 109.8C431.113 106.733 429.847 104.267 427.313 102.4C424.913 100.533 420.58 98.9333 414.313 97.6L390.913 92.6C378.113 89.9333 368.58 85.2667 362.313 78.6C356.047 71.9333 352.913 63.3333 352.913 52.8C352.913 45.8667 354.313 39.6 357.113 34C360.047 28.2667 364.113 23.4 369.313 19.4C374.647 15.4 380.913 12.3333 388.113 10.2C395.447 7.93333 403.58 6.8 412.513 6.8C419.447 6.8 426.447 7.59999 433.513 9.19999C440.713 10.6667 446.913 12.9333 452.113 16C455.18 17.6 457.38 19.8 458.713 22.6C460.047 25.4 460.58 28.3333 460.313 31.4C460.047 34.3333 458.98 36.9333 457.113 39.2C455.38 41.4667 452.98 43 449.913 43.8C446.98 44.4667 443.447 43.9333 439.313 42.2C435.447 40.4667 431.047 39.2 426.113 38.4C421.313 37.4667 416.647 37 412.113 37C407.18 37 402.98 37.6 399.513 38.8C396.047 39.8667 393.38 41.4667 391.513 43.6C389.78 45.7333 388.913 48.2 388.913 51C388.913 53.8 390.047 56.2 392.313 58.2C394.713 60.0667 399.047 61.6667 405.313 63L428.513 68C441.447 70.8 451.113 75.4 457.513 81.8C463.913 88.2 467.113 96.5333 467.113 106.8C467.113 113.733 465.713 120 462.913 125.6C460.113 131.2 456.113 136 450.913 140C445.713 143.867 439.447 146.867 432.113 149C424.78 151.133 416.513 152.2 407.313 152.2ZM503.587 151.8C497.72 151.8 493.187 150.2 489.987 147C486.787 143.667 485.187 139.067 485.187 133.2V27.6C485.187 21.6 486.787 17 489.987 13.8C493.32 10.6 497.92 8.99999 503.787 8.99999H552.987C568.987 8.99999 581.32 13.1333 589.987 21.4C598.787 29.5333 603.187 40.8 603.187 55.2C603.187 69.6 598.787 80.9333 589.987 89.2C581.32 97.3333 568.987 101.4 552.987 101.4H521.987V133.2C521.987 139.067 520.453 143.667 517.387 147C514.32 150.2 509.72 151.8 503.587 151.8ZM521.987 73.2H546.587C553.52 73.2 558.853 71.7333 562.587 68.8C566.32 65.7333 568.187 61.2 568.187 55.2C568.187 49.0667 566.32 44.5333 562.587 41.6C558.853 38.6667 553.52 37.2 546.587 37.2H521.987V73.2ZM639.543 150C633.276 150 628.476 148.4 625.143 145.2C621.943 141.867 620.343 137.133 620.343 131V28C620.343 21.8667 621.943 17.2 625.143 14C628.476 10.6667 633.276 8.99999 639.543 8.99999H707.343C712.143 8.99999 715.743 10.2 718.143 12.6C720.543 15 721.743 18.4667 721.743 23C721.743 27.6667 720.543 31.2667 718.143 33.8C715.743 36.2 712.143 37.4 707.343 37.4H655.543V64.2H702.943C707.61 64.2 711.143 65.4 713.543 67.8C716.076 70.2 717.343 73.7333 717.343 78.4C717.343 83.0667 716.076 86.6 713.543 89C711.143 91.4 707.61 92.6 702.943 92.6H655.543V121.6H707.343C712.143 121.6 715.743 122.867 718.143 125.4C720.543 127.8 721.743 131.267 721.743 135.8C721.743 140.467 720.543 144 718.143 146.4C715.743 148.8 712.143 150 707.343 150H639.543ZM761.595 151.8C755.728 151.8 751.195 150.2 747.995 147C744.795 143.667 743.195 139.067 743.195 133.2V27.6C743.195 21.6 744.795 17 747.995 13.8C751.328 10.6 755.928 8.99999 761.795 8.99999H810.995C826.995 8.99999 839.328 12.9333 847.995 20.8C856.795 28.5333 861.195 39.3333 861.195 53.2C861.195 62.1333 859.195 69.9333 855.195 76.6C851.328 83.1333 845.661 88.2 838.195 91.8C830.861 95.2667 821.795 97 810.995 97L812.595 93.4H822.195C827.928 93.4 832.995 94.8 837.395 97.6C841.795 100.267 845.461 104.4 848.395 110L858.395 128C860.528 131.867 861.528 135.667 861.395 139.4C861.261 143 859.795 146 856.995 148.4C854.328 150.667 850.395 151.8 845.195 151.8C839.995 151.8 835.728 150.733 832.395 148.6C829.195 146.467 826.328 143.133 823.795 138.6L805.595 105.2C803.995 102.267 801.928 100.267 799.395 99.2C796.995 98 794.195 97.4 790.995 97.4H779.995V133.2C779.995 139.067 778.461 143.667 775.395 147C772.328 150.2 767.728 151.8 761.595 151.8ZM779.995 71.4H804.395C811.461 71.4 816.861 70 820.595 67.2C824.328 64.4 826.195 60.0667 826.195 54.2C826.195 48.6 824.328 44.4 820.595 41.6C816.861 38.6667 811.461 37.2 804.395 37.2H779.995V71.4ZM936.024 152.2C930.691 152.2 925.091 151.8 919.224 151C913.491 150.333 908.024 149.267 902.824 147.8C897.624 146.333 892.958 144.6 888.824 142.6C885.224 140.867 882.691 138.6 881.224 135.8C879.758 132.867 879.224 129.8 879.624 126.6C880.024 123.4 881.158 120.6 883.024 118.2C884.891 115.667 887.358 114 890.424 113.2C893.491 112.267 896.958 112.667 900.824 114.4C905.891 116.8 911.624 118.667 918.024 120C924.424 121.333 930.424 122 936.024 122C944.824 122 950.958 120.867 954.424 118.6C958.024 116.2 959.824 113.267 959.824 109.8C959.824 106.733 958.558 104.267 956.024 102.4C953.624 100.533 949.291 98.9333 943.024 97.6L919.624 92.6C906.824 89.9333 897.291 85.2667 891.024 78.6C884.758 71.9333 881.624 63.3333 881.624 52.8C881.624 45.8667 883.024 39.6 885.824 34C888.758 28.2667 892.824 23.4 898.024 19.4C903.358 15.4 909.624 12.3333 916.824 10.2C924.158 7.93333 932.291 6.8 941.224 6.8C948.158 6.8 955.158 7.59999 962.224 9.19999C969.424 10.6667 975.624 12.9333 980.824 16C983.891 17.6 986.091 19.8 987.424 22.6C988.758 25.4 989.291 28.3333 989.024 31.4C988.758 34.3333 987.691 36.9333 985.824 39.2C984.091 41.4667 981.691 43 978.624 43.8C975.691 44.4667 972.158 43.9333 968.024 42.2C964.158 40.4667 959.758 39.2 954.824 38.4C950.024 37.4667 945.358 37 940.824 37C935.891 37 931.691 37.6 928.224 38.8C924.758 39.8667 922.091 41.4667 920.224 43.6C918.491 45.7333 917.624 48.2 917.624 51C917.624 53.8 918.758 56.2 921.024 58.2C923.424 60.0667 927.758 61.6667 934.024 63L957.224 68C970.158 70.8 979.824 75.4 986.224 81.8C992.624 88.2 995.824 96.5333 995.824 106.8C995.824 113.733 994.424 120 991.624 125.6C988.824 131.2 984.824 136 979.624 140C974.424 143.867 968.158 146.867 960.824 149C953.491 151.133 945.224 152.2 936.024 152.2Z"/>
</mask>
<path d="M84.9023 152.2C69.3023 152.2 55.9023 149.2 44.7023 143.2C33.5023 137.2 24.9023 128.733 18.9023 117.8C13.0357 106.867 10.1023 94.0667 10.1023 79.4C10.1023 68.4667 11.769 58.5333 15.1023 49.6C18.569 40.6667 23.5023 33 29.9023 26.6C36.4357 20.2 44.3023 15.3333 53.5023 12C62.8357 8.53333 73.3023 6.8 84.9023 6.8C91.0357 6.8 97.369 7.53333 103.902 8.99999C110.569 10.3333 116.436 12.4 121.502 15.2C125.236 17.2 127.836 19.7333 129.302 22.8C130.769 25.8667 131.236 29 130.702 32.2C130.302 35.4 129.169 38.2667 127.302 40.8C125.436 43.3333 123.036 45.0667 120.102 46C117.169 46.8 113.969 46.3333 110.502 44.6C106.502 42.7333 102.502 41.3333 98.5024 40.4C94.6357 39.3333 90.569 38.8 86.3023 38.8C78.0357 38.8 71.1023 40.4 65.5023 43.6C60.0357 46.6667 55.9023 51.2 53.1023 57.2C50.3023 63.2 48.9023 70.6 48.9023 79.4C48.9023 88.2 50.3023 95.6667 53.1023 101.8C55.9023 107.8 60.0357 112.4 65.5023 115.6C71.1023 118.667 78.0357 120.2 86.3023 120.2C89.769 120.2 93.5023 119.8 97.5023 119C101.502 118.067 105.436 116.667 109.302 114.8C113.302 113.067 116.836 112.6 119.902 113.4C123.102 114.2 125.636 115.8 127.502 118.2C129.502 120.6 130.769 123.4 131.302 126.6C131.836 129.667 131.369 132.733 129.902 135.8C128.569 138.867 126.169 141.333 122.702 143.2C118.036 146 112.236 148.2 105.302 149.8C98.5023 151.4 91.7023 152.2 84.9023 152.2ZM169.798 151.8C163.931 151.8 159.398 150.2 156.198 147C152.998 143.667 151.398 139.067 151.398 133.2V27.6C151.398 21.6 152.998 17 156.198 13.8C159.531 10.6 164.131 8.99999 169.998 8.99999H219.198C235.198 8.99999 247.531 12.9333 256.198 20.8C264.998 28.5333 269.398 39.3333 269.398 53.2C269.398 62.1333 267.398 69.9333 263.398 76.6C259.531 83.1333 253.864 88.2 246.398 91.8C239.064 95.2667 229.998 97 219.198 97L220.798 93.4H230.398C236.131 93.4 241.198 94.8 245.598 97.6C249.998 100.267 253.664 104.4 256.598 110L266.598 128C268.731 131.867 269.731 135.667 269.598 139.4C269.464 143 267.998 146 265.198 148.4C262.531 150.667 258.598 151.8 253.398 151.8C248.198 151.8 243.931 150.733 240.598 148.6C237.398 146.467 234.531 143.133 231.998 138.6L213.798 105.2C212.198 102.267 210.131 100.267 207.598 99.2C205.198 98 202.398 97.4 199.198 97.4H188.198V133.2C188.198 139.067 186.664 143.667 183.598 147C180.531 150.2 175.931 151.8 169.798 151.8ZM188.198 71.4H212.598C219.664 71.4 225.064 70 228.798 67.2C232.531 64.4 234.398 60.0667 234.398 54.2C234.398 48.6 232.531 44.4 228.798 41.6C225.064 38.6667 219.664 37.2 212.598 37.2H188.198V71.4ZM311.009 151.8C305.142 151.8 300.609 150.2 297.409 147C294.209 143.667 292.609 139 292.609 133V26C292.609 19.8667 294.209 15.2 297.409 12C300.609 8.79999 305.142 7.19999 311.009 7.19999C317.009 7.19999 321.542 8.79999 324.609 12C327.809 15.2 329.409 19.8667 329.409 26V133C329.409 139 327.875 143.667 324.809 147C321.742 150.2 317.142 151.8 311.009 151.8ZM407.313 152.2C401.98 152.2 396.38 151.8 390.513 151C384.78 150.333 379.313 149.267 374.113 147.8C368.913 146.333 364.247 144.6 360.113 142.6C356.513 140.867 353.98 138.6 352.513 135.8C351.047 132.867 350.513 129.8 350.913 126.6C351.313 123.4 352.447 120.6 354.313 118.2C356.18 115.667 358.647 114 361.713 113.2C364.78 112.267 368.247 112.667 372.113 114.4C377.18 116.8 382.913 118.667 389.313 120C395.713 121.333 401.713 122 407.313 122C416.113 122 422.247 120.867 425.713 118.6C429.313 116.2 431.113 113.267 431.113 109.8C431.113 106.733 429.847 104.267 427.313 102.4C424.913 100.533 420.58 98.9333 414.313 97.6L390.913 92.6C378.113 89.9333 368.58 85.2667 362.313 78.6C356.047 71.9333 352.913 63.3333 352.913 52.8C352.913 45.8667 354.313 39.6 357.113 34C360.047 28.2667 364.113 23.4 369.313 19.4C374.647 15.4 380.913 12.3333 388.113 10.2C395.447 7.93333 403.58 6.8 412.513 6.8C419.447 6.8 426.447 7.59999 433.513 9.19999C440.713 10.6667 446.913 12.9333 452.113 16C455.18 17.6 457.38 19.8 458.713 22.6C460.047 25.4 460.58 28.3333 460.313 31.4C460.047 34.3333 458.98 36.9333 457.113 39.2C455.38 41.4667 452.98 43 449.913 43.8C446.98 44.4667 443.447 43.9333 439.313 42.2C435.447 40.4667 431.047 39.2 426.113 38.4C421.313 37.4667 416.647 37 412.113 37C407.18 37 402.98 37.6 399.513 38.8C396.047 39.8667 393.38 41.4667 391.513 43.6C389.78 45.7333 388.913 48.2 388.913 51C388.913 53.8 390.047 56.2 392.313 58.2C394.713 60.0667 399.047 61.6667 405.313 63L428.513 68C441.447 70.8 451.113 75.4 457.513 81.8C463.913 88.2 467.113 96.5333 467.113 106.8C467.113 113.733 465.713 120 462.913 125.6C460.113 131.2 456.113 136 450.913 140C445.713 143.867 439.447 146.867 432.113 149C424.78 151.133 416.513 152.2 407.313 152.2ZM503.587 151.8C497.72 151.8 493.187 150.2 489.987 147C486.787 143.667 485.187 139.067 485.187 133.2V27.6C485.187 21.6 486.787 17 489.987 13.8C493.32 10.6 497.92 8.99999 503.787 8.99999H552.987C568.987 8.99999 581.32 13.1333 589.987 21.4C598.787 29.5333 603.187 40.8 603.187 55.2C603.187 69.6 598.787 80.9333 589.987 89.2C581.32 97.3333 568.987 101.4 552.987 101.4H521.987V133.2C521.987 139.067 520.453 143.667 517.387 147C514.32 150.2 509.72 151.8 503.587 151.8ZM521.987 73.2H546.587C553.52 73.2 558.853 71.7333 562.587 68.8C566.32 65.7333 568.187 61.2 568.187 55.2C568.187 49.0667 566.32 44.5333 562.587 41.6C558.853 38.6667 553.52 37.2 546.587 37.2H521.987V73.2ZM639.543 150C633.276 150 628.476 148.4 625.143 145.2C621.943 141.867 620.343 137.133 620.343 131V28C620.343 21.8667 621.943 17.2 625.143 14C628.476 10.6667 633.276 8.99999 639.543 8.99999H707.343C712.143 8.99999 715.743 10.2 718.143 12.6C720.543 15 721.743 18.4667 721.743 23C721.743 27.6667 720.543 31.2667 718.143 33.8C715.743 36.2 712.143 37.4 707.343 37.4H655.543V64.2H702.943C707.61 64.2 711.143 65.4 713.543 67.8C716.076 70.2 717.343 73.7333 717.343 78.4C717.343 83.0667 716.076 86.6 713.543 89C711.143 91.4 707.61 92.6 702.943 92.6H655.543V121.6H707.343C712.143 121.6 715.743 122.867 718.143 125.4C720.543 127.8 721.743 131.267 721.743 135.8C721.743 140.467 720.543 144 718.143 146.4C715.743 148.8 712.143 150 707.343 150H639.543ZM761.595 151.8C755.728 151.8 751.195 150.2 747.995 147C744.795 143.667 743.195 139.067 743.195 133.2V27.6C743.195 21.6 744.795 17 747.995 13.8C751.328 10.6 755.928 8.99999 761.795 8.99999H810.995C826.995 8.99999 839.328 12.9333 847.995 20.8C856.795 28.5333 861.195 39.3333 861.195 53.2C861.195 62.1333 859.195 69.9333 855.195 76.6C851.328 83.1333 845.661 88.2 838.195 91.8C830.861 95.2667 821.795 97 810.995 97L812.595 93.4H822.195C827.928 93.4 832.995 94.8 837.395 97.6C841.795 100.267 845.461 104.4 848.395 110L858.395 128C860.528 131.867 861.528 135.667 861.395 139.4C861.261 143 859.795 146 856.995 148.4C854.328 150.667 850.395 151.8 845.195 151.8C839.995 151.8 835.728 150.733 832.395 148.6C829.195 146.467 826.328 143.133 823.795 138.6L805.595 105.2C803.995 102.267 801.928 100.267 799.395 99.2C796.995 98 794.195 97.4 790.995 97.4H779.995V133.2C779.995 139.067 778.461 143.667 775.395 147C772.328 150.2 767.728 151.8 761.595 151.8ZM779.995 71.4H804.395C811.461 71.4 816.861 70 820.595 67.2C824.328 64.4 826.195 60.0667 826.195 54.2C826.195 48.6 824.328 44.4 820.595 41.6C816.861 38.6667 811.461 37.2 804.395 37.2H779.995V71.4ZM936.024 152.2C930.691 152.2 925.091 151.8 919.224 151C913.491 150.333 908.024 149.267 902.824 147.8C897.624 146.333 892.958 144.6 888.824 142.6C885.224 140.867 882.691 138.6 881.224 135.8C879.758 132.867 879.224 129.8 879.624 126.6C880.024 123.4 881.158 120.6 883.024 118.2C884.891 115.667 887.358 114 890.424 113.2C893.491 112.267 896.958 112.667 900.824 114.4C905.891 116.8 911.624 118.667 918.024 120C924.424 121.333 930.424 122 936.024 122C944.824 122 950.958 120.867 954.424 118.6C958.024 116.2 959.824 113.267 959.824 109.8C959.824 106.733 958.558 104.267 956.024 102.4C953.624 100.533 949.291 98.9333 943.024 97.6L919.624 92.6C906.824 89.9333 897.291 85.2667 891.024 78.6C884.758 71.9333 881.624 63.3333 881.624 52.8C881.624 45.8667 883.024 39.6 885.824 34C888.758 28.2667 892.824 23.4 898.024 19.4C903.358 15.4 909.624 12.3333 916.824 10.2C924.158 7.93333 932.291 6.8 941.224 6.8C948.158 6.8 955.158 7.59999 962.224 9.19999C969.424 10.6667 975.624 12.9333 980.824 16C983.891 17.6 986.091 19.8 987.424 22.6C988.758 25.4 989.291 28.3333 989.024 31.4C988.758 34.3333 987.691 36.9333 985.824 39.2C984.091 41.4667 981.691 43 978.624 43.8C975.691 44.4667 972.158 43.9333 968.024 42.2C964.158 40.4667 959.758 39.2 954.824 38.4C950.024 37.4667 945.358 37 940.824 37C935.891 37 931.691 37.6 928.224 38.8C924.758 39.8667 922.091 41.4667 920.224 43.6C918.491 45.7333 917.624 48.2 917.624 51C917.624 53.8 918.758 56.2 921.024 58.2C923.424 60.0667 927.758 61.6667 934.024 63L957.224 68C970.158 70.8 979.824 75.4 986.224 81.8C992.624 88.2 995.824 96.5333 995.824 106.8C995.824 113.733 994.424 120 991.624 125.6C988.824 131.2 984.824 136 979.624 140C974.424 143.867 968.158 146.867 960.824 149C953.491 151.133 945.224 152.2 936.024 152.2Z" fill="url(#paint0_linear_138_201)"/>
<path d="M44.7023 143.2L46.119 140.556L44.7023 143.2ZM18.9023 117.8L16.2589 119.218L16.2655 119.231L16.2723 119.243L18.9023 117.8ZM15.1023 49.6L12.3055 48.5147L12.2985 48.5329L12.2916 48.5512L15.1023 49.6ZM29.9023 26.6L27.803 24.4569L27.792 24.4677L27.781 24.4787L29.9023 26.6ZM53.5023 12L54.5243 14.8206L54.5356 14.8165L54.5469 14.8123L53.5023 12ZM103.902 8.99999L103.245 11.9271L103.28 11.9348L103.314 11.9417L103.902 8.99999ZM121.502 15.2L120.051 17.8257L120.068 17.8352L120.086 17.8444L121.502 15.2ZM129.302 22.8L126.596 24.0944L129.302 22.8ZM130.702 32.2L127.743 31.7068L127.733 31.7672L127.726 31.8279L130.702 32.2ZM127.302 40.8L124.887 39.0204L127.302 40.8ZM120.102 46L120.892 48.8943L120.952 48.8778L121.012 48.8588L120.102 46ZM110.502 44.6L111.844 41.9167L111.808 41.8986L111.771 41.8814L110.502 44.6ZM98.5023 40.4L97.7046 43.292L97.7623 43.3079L97.8207 43.3215L98.5023 40.4ZM65.5023 43.6L66.9701 46.2164L66.9805 46.2106L66.9908 46.2047L65.5023 43.6ZM53.1023 101.8L50.3733 103.046L50.3785 103.057L50.3838 103.069L53.1023 101.8ZM65.5023 115.6L63.9868 118.189L64.0238 118.211L64.0614 118.231L65.5023 115.6ZM97.5023 119L98.0907 121.942L98.1375 121.932L98.184 121.922L97.5023 119ZM109.302 114.8L108.11 112.047L108.053 112.072L107.998 112.098L109.302 114.8ZM119.902 113.4L119.145 116.303L119.16 116.307L119.175 116.31L119.902 113.4ZM127.502 118.2L125.134 120.042L125.165 120.082L125.198 120.121L127.502 118.2ZM131.302 126.6L128.343 127.093L128.345 127.104L128.347 127.114L131.302 126.6ZM129.902 135.8L127.196 134.506L127.173 134.554L127.151 134.604L129.902 135.8ZM122.702 143.2L121.28 140.559L121.219 140.592L121.159 140.628L122.702 143.2ZM105.302 149.8L104.628 146.877L104.615 146.88L105.302 149.8ZM84.9023 149.2C69.6854 149.2 56.7948 146.275 46.119 140.556L43.2857 145.844C55.0099 152.125 68.9193 155.2 84.9023 155.2V149.2ZM46.119 140.556C35.421 134.825 27.2472 126.771 21.5323 116.357L16.2723 119.243C22.5574 130.696 31.5836 139.576 43.2857 145.844L46.119 140.556ZM21.5458 116.382C15.9524 105.957 13.1023 93.6617 13.1023 79.4H7.10234C7.10234 94.4716 10.119 107.776 16.2589 119.218L21.5458 116.382ZM13.1023 79.4C13.1023 68.7729 14.7218 59.2013 17.9131 50.6488L12.2916 48.5512C8.8162 57.8654 7.10234 68.1604 7.10234 79.4H13.1023ZM17.8991 50.6853C21.2241 42.1173 25.9355 34.8095 32.0237 28.7213L27.781 24.4787C21.0692 31.1905 15.914 39.2161 12.3055 48.5147L17.8991 50.6853ZM32.0017 28.7431C38.2074 22.664 45.6991 18.0181 54.5243 14.8206L52.4804 9.17942C42.9056 12.6485 34.664 17.736 27.803 24.4569L32.0017 28.7431ZM54.5469 14.8123C63.4958 11.4884 73.6011 9.8 84.9023 9.8V3.8C73.0036 3.8 62.1756 5.57825 52.4578 9.18771L54.5469 14.8123ZM84.9023 9.8C90.7955 9.8 96.9081 10.5045 103.245 11.9271L104.559 6.07284C97.83 4.56214 91.2759 3.8 84.9023 3.8V9.8ZM103.314 11.9417C109.73 13.2249 115.297 15.1981 120.051 17.8257L122.953 12.5743C117.575 9.6019 111.408 7.44174 104.491 6.05825L103.314 11.9417ZM120.086 17.8444C123.397 19.6182 125.466 21.7321 126.596 24.0944L132.009 21.5056C130.205 17.7346 127.075 14.7818 122.919 12.5556L120.086 17.8444ZM126.596 24.0944C127.81 26.6335 128.17 29.1446 127.743 31.7068L133.662 32.6932C134.301 28.8554 133.728 25.0998 132.009 21.5056L126.596 24.0944ZM127.726 31.8279C127.388 34.5316 126.441 36.911 124.887 39.0204L129.718 42.5796C131.897 39.6223 133.217 36.2684 133.679 32.5721L127.726 31.8279ZM124.887 39.0204C123.387 41.0564 121.509 42.4043 119.193 43.1412L121.012 48.8588C124.563 47.729 127.484 45.6103 129.718 42.5796L124.887 39.0204ZM119.313 43.1057C117.271 43.6627 114.838 43.4136 111.844 41.9167L109.161 47.2833C113.1 49.2531 117.067 49.9373 120.892 48.8943L119.313 43.1057ZM111.771 41.8814C107.597 39.9335 103.401 38.4623 99.184 37.4785L97.8207 43.3215C101.604 44.2043 105.408 45.5332 109.234 47.3186L111.771 41.8814ZM99.3001 37.508C95.1576 36.3652 90.8215 35.8 86.3024 35.8V41.8C90.3166 41.8 94.1138 42.3014 97.7046 43.292L99.3001 37.508ZM86.3024 35.8C77.6576 35.8 70.1777 37.4731 64.0139 40.9953L66.9908 46.2047C72.027 43.3269 78.4138 41.8 86.3024 41.8V35.8ZM64.0346 40.9836C57.9883 44.3754 53.4335 49.3963 50.3838 55.9313L55.8209 58.4687C58.3712 53.0037 62.083 48.958 66.9701 46.2164L64.0346 40.9836ZM50.3838 55.9313C47.348 62.4367 45.9023 70.2991 45.9023 79.4H51.9023C51.9023 70.9009 53.2567 63.9633 55.8209 58.4687L50.3838 55.9313ZM45.9023 79.4C45.9023 88.5043 47.3491 96.4214 50.3733 103.046L55.8314 100.554C53.2556 94.912 51.9023 87.8957 51.9023 79.4H45.9023ZM50.3838 103.069C53.4291 109.594 57.9697 114.667 63.9868 118.189L67.0179 113.011C62.1017 110.133 58.3756 106.006 55.8209 100.531L50.3838 103.069ZM64.0614 118.231C70.2145 121.601 77.6764 123.2 86.3024 123.2V117.2C78.395 117.2 71.9902 115.732 66.9433 112.969L64.0614 118.231ZM86.3024 123.2C89.9976 123.2 93.9299 122.774 98.0907 121.942L96.914 116.058C93.0748 116.826 89.5405 117.2 86.3024 117.2V123.2ZM98.184 121.922C102.409 120.936 106.55 119.46 110.607 117.502L107.998 112.098C104.321 113.873 100.596 115.198 96.8207 116.078L98.184 121.922ZM110.495 117.553C114.108 115.987 116.932 115.726 119.145 116.303L120.66 110.497C116.739 109.474 112.497 110.146 108.11 112.047L110.495 117.553ZM119.175 116.31C121.783 116.962 123.715 118.217 125.134 120.042L129.87 116.358C127.556 113.383 124.422 111.438 120.63 110.49L119.175 116.31ZM125.198 120.121C126.843 122.095 127.894 124.398 128.343 127.093L134.262 126.107C133.644 122.402 132.161 119.105 129.807 116.279L125.198 120.121ZM128.347 127.114C128.763 129.51 128.42 131.947 127.196 134.506L132.609 137.094C134.318 133.52 134.908 129.824 134.258 126.086L128.347 127.114ZM127.151 134.604C126.132 136.948 124.264 138.952 121.28 140.559L124.125 145.841C128.074 143.715 131.006 140.785 132.654 136.996L127.151 134.604ZM121.159 140.628C116.83 143.225 111.344 145.327 104.628 146.877L105.977 152.723C113.128 151.073 119.241 148.775 124.246 145.772L121.159 140.628ZM104.615 146.88C98.0343 148.428 91.4648 149.2 84.9023 149.2V155.2C91.9399 155.2 98.9704 154.372 105.989 152.72L104.615 146.88ZM156.198 147L154.033 149.078L154.055 149.1L154.076 149.121L156.198 147ZM156.198 13.8L154.12 11.6358L154.098 11.657L154.076 11.6787L156.198 13.8ZM256.198 20.8L254.181 23.0214L254.199 23.0376L254.217 23.0535L256.198 20.8ZM263.398 76.6L260.825 75.0565L260.821 75.0643L260.816 75.072L263.398 76.6ZM246.398 91.8L247.68 94.5122L247.69 94.5073L247.701 94.5023L246.398 91.8ZM219.198 97L216.456 95.7816L214.581 100H219.198V97ZM220.798 93.4V90.4H218.848L218.056 92.1816L220.798 93.4ZM245.598 97.6L243.987 100.131L244.015 100.149L244.043 100.166L245.598 97.6ZM256.598 110L253.94 111.392L253.957 111.425L253.975 111.457L256.598 110ZM266.598 128L269.224 126.551L269.22 126.543L266.598 128ZM269.598 139.4L272.596 139.511L272.596 139.507L269.598 139.4ZM265.198 148.4L267.141 150.686L267.15 150.678L265.198 148.4ZM240.598 148.6L238.934 151.096L238.957 151.112L238.98 151.127L240.598 148.6ZM231.998 138.6L229.363 140.035L229.371 140.049L229.379 140.063L231.998 138.6ZM213.798 105.2L216.432 103.765L216.431 103.763L213.798 105.2ZM207.598 99.2L206.256 101.883L206.343 101.927L206.434 101.965L207.598 99.2ZM188.198 97.4V94.4H185.198V97.4H188.198ZM183.598 147L185.764 149.076L185.785 149.054L185.805 149.031L183.598 147ZM188.198 71.4H185.198V74.4H188.198V71.4ZM228.798 67.2L226.998 64.8L228.798 67.2ZM228.798 41.6L226.944 43.9589L226.971 43.9798L226.998 44L228.798 41.6ZM188.198 37.2V34.2H185.198V37.2H188.198ZM169.798 148.8C164.481 148.8 160.803 147.363 158.319 144.879L154.076 149.121C157.992 153.037 163.381 154.8 169.798 154.8V148.8ZM158.362 144.922C155.832 142.287 154.398 138.51 154.398 133.2H148.398C148.398 139.623 150.163 145.046 154.033 149.078L158.362 144.922ZM154.398 133.2V27.6H148.398V133.2H154.398ZM154.398 27.6C154.398 22.1273 155.847 18.3938 158.319 15.9213L154.076 11.6787C150.149 15.6062 148.398 21.0727 148.398 27.6H154.398ZM158.275 15.9641C160.91 13.4346 164.687 12 169.998 12V5.99999C163.575 5.99999 158.152 7.7654 154.12 11.6358L158.275 15.9641ZM169.998 12H219.198V5.99999H169.998V12ZM219.198 12C234.728 12 246.242 15.8147 254.181 23.0214L258.214 18.5786C248.82 10.052 235.667 5.99999 219.198 5.99999V12ZM254.217 23.0535C262.249 30.1117 266.398 40.0222 266.398 53.2H272.398C272.398 38.6445 267.746 26.955 258.178 18.5465L254.217 23.0535ZM266.398 53.2C266.398 61.6721 264.506 68.9221 260.825 75.0565L265.97 78.1435C270.289 70.9446 272.398 62.5946 272.398 53.2H266.398ZM260.816 75.072C257.278 81.0497 252.08 85.7299 245.095 89.0977L247.701 94.5023C255.649 90.6701 261.784 85.2169 265.979 78.128L260.816 75.072ZM245.116 89.0878C238.293 92.313 229.694 94 219.198 94V100C230.301 100 239.836 98.2203 247.68 94.5122L245.116 89.0878ZM221.939 98.2184L223.539 94.6184L218.056 92.1816L216.456 95.7816L221.939 98.2184ZM220.798 96.4H230.398V90.4H220.798V96.4ZM230.398 96.4C235.619 96.4 240.116 97.6674 243.987 100.131L247.208 95.069C242.28 91.9326 236.643 90.4 230.398 90.4V96.4ZM244.043 100.166C247.879 102.491 251.203 106.166 253.94 111.392L259.255 108.608C256.126 102.634 252.116 98.0428 247.153 95.0344L244.043 100.166ZM253.975 111.457L263.975 129.457L269.22 126.543L259.22 108.543L253.975 111.457ZM263.971 129.449C265.89 132.928 266.71 136.194 266.6 139.293L272.596 139.507C272.752 135.139 271.572 130.806 269.224 126.551L263.971 129.449ZM266.6 139.289C266.498 142.03 265.427 144.252 263.245 146.122L267.15 150.678C270.568 147.748 272.43 143.97 272.596 139.511L266.6 139.289ZM263.255 146.114C261.34 147.741 258.221 148.8 253.398 148.8V154.8C258.974 154.8 263.722 153.592 267.141 150.686L263.255 146.114ZM253.398 148.8C248.594 148.8 244.936 147.814 242.215 146.073L238.98 151.127C242.926 153.652 247.801 154.8 253.398 154.8V148.8ZM242.262 146.104C239.571 144.31 236.995 141.393 234.616 137.137L229.379 140.063C232.067 144.873 235.224 148.623 238.934 151.096L242.262 146.104ZM234.632 137.165L216.432 103.765L211.163 106.635L229.363 140.035L234.632 137.165ZM216.431 103.763C214.578 100.366 212.048 97.8186 208.762 96.4351L206.434 101.965C208.214 102.715 209.817 104.167 211.164 106.637L216.431 103.763ZM208.939 96.5167C206.05 95.072 202.774 94.4 199.198 94.4V100.4C202.021 100.4 204.345 100.928 206.256 101.883L208.939 96.5167ZM199.198 94.4H188.198V100.4H199.198V94.4ZM185.198 97.4V133.2H191.198V97.4H185.198ZM185.198 133.2C185.198 138.543 183.811 142.337 181.39 144.969L185.805 149.031C189.518 144.996 191.198 139.59 191.198 133.2H185.198ZM181.432 144.924C179.121 147.336 175.435 148.8 169.798 148.8V154.8C176.427 154.8 181.941 153.064 185.764 149.076L181.432 144.924ZM188.198 74.4H212.598V68.4H188.198V74.4ZM212.598 74.4C219.997 74.4 226.139 72.944 230.598 69.6L226.998 64.8C223.99 67.056 219.331 68.4 212.598 68.4V74.4ZM230.598 69.6C235.278 66.0895 237.398 60.7421 237.398 54.2H231.398C231.398 59.3912 229.784 62.7105 226.998 64.8L230.598 69.6ZM237.398 54.2C237.398 47.868 235.241 42.6829 230.598 39.2L226.998 44C229.82 46.1171 231.398 49.332 231.398 54.2H237.398ZM230.651 39.241C226.186 35.7327 220.022 34.2 212.598 34.2V40.2C219.307 40.2 223.943 41.6006 226.944 43.9589L230.651 39.241ZM212.598 34.2H188.198V40.2H212.598V34.2ZM185.198 37.2V71.4H191.198V37.2H185.198ZM297.409 147L295.244 149.078L295.266 149.1L295.287 149.121L297.409 147ZM297.409 12L295.287 9.87867L297.409 12ZM324.609 12L322.443 14.0757L322.465 14.0987L322.487 14.1213L324.609 12ZM324.809 147L326.975 149.076L326.996 149.054L327.016 149.031L324.809 147ZM311.009 148.8C305.692 148.8 302.014 147.363 299.53 144.879L295.287 149.121C299.203 153.037 304.592 154.8 311.009 154.8V148.8ZM299.573 144.922C297.055 142.299 295.609 138.465 295.609 133H289.609C289.609 139.535 291.362 145.034 295.244 149.078L299.573 144.922ZM295.609 133V26H289.609V133H295.609ZM295.609 26C295.609 20.372 297.069 16.5822 299.53 14.1213L295.287 9.87867C291.348 13.8178 289.609 19.3614 289.609 26H295.609ZM299.53 14.1213C302.014 11.6368 305.692 10.2 311.009 10.2V4.19999C304.592 4.19999 299.203 5.96317 295.287 9.87867L299.53 14.1213ZM311.009 10.2C316.49 10.2 320.12 11.652 322.443 14.0757L326.775 9.92427C322.964 5.94797 317.527 4.19999 311.009 4.19999V10.2ZM322.487 14.1213C324.948 16.5822 326.409 20.372 326.409 26H332.409C332.409 19.3614 330.669 13.8178 326.73 9.87867L322.487 14.1213ZM326.409 26V133H332.409V26H326.409ZM326.409 133C326.409 138.497 325.011 142.349 322.601 144.969L327.016 149.031C330.74 144.984 332.409 139.503 332.409 133H326.409ZM322.643 144.924C320.331 147.336 316.646 148.8 311.009 148.8V154.8C317.638 154.8 323.152 153.064 326.975 149.076L322.643 144.924ZM390.513 151L390.919 148.028L390.889 148.023L390.86 148.02L390.513 151ZM360.113 142.6L361.42 139.9L361.415 139.897L360.113 142.6ZM352.513 135.8L349.83 137.142L349.843 137.167L349.856 137.192L352.513 135.8ZM350.913 126.6L353.89 126.972L350.913 126.6ZM354.313 118.2L356.681 120.042L356.705 120.011L356.728 119.98L354.313 118.2ZM361.713 113.2L362.471 116.103L362.529 116.088L362.587 116.07L361.713 113.2ZM372.113 114.4L373.398 111.689L373.369 111.675L373.34 111.662L372.113 114.4ZM389.313 120L389.925 117.063L389.313 120ZM425.713 118.6L427.355 121.111L427.366 121.104L427.377 121.096L425.713 118.6ZM427.313 102.4L425.471 104.768L425.502 104.792L425.534 104.815L427.313 102.4ZM414.313 97.6L413.686 100.534L413.689 100.534L414.313 97.6ZM390.913 92.6L391.54 89.6662L391.533 89.6646L391.525 89.6631L390.913 92.6ZM362.313 78.6L364.499 76.5453V76.5453L362.313 78.6ZM357.113 34L354.443 32.6336L354.436 32.6459L354.43 32.6583L357.113 34ZM369.313 19.4L367.513 17L367.499 17.011L367.484 17.0221L369.313 19.4ZM388.113 10.2L388.966 13.0764L388.982 13.0714L388.999 13.0662L388.113 10.2ZM433.513 9.19999L432.851 12.1259L432.883 12.1331L432.914 12.1396L433.513 9.19999ZM452.113 16L450.589 18.5841L450.656 18.6237L450.726 18.6598L452.113 16ZM458.713 22.6L456.005 23.8898V23.8898L458.713 22.6ZM460.313 31.4L463.301 31.6716L463.302 31.6599L460.313 31.4ZM457.113 39.2L454.797 37.2929L454.763 37.3347L454.73 37.3776L457.113 39.2ZM449.913 43.8L450.578 46.7254L450.625 46.7149L450.671 46.7029L449.913 43.8ZM439.313 42.2L438.086 44.9375L438.119 44.9525L438.153 44.9666L439.313 42.2ZM426.113 38.4L425.541 41.3448L425.587 41.3538L425.633 41.3613L426.113 38.4ZM399.513 38.8L400.396 41.6673L400.445 41.652L400.495 41.6349L399.513 38.8ZM391.513 43.6L389.256 41.6245L389.219 41.6657L389.185 41.7082L391.513 43.6ZM392.313 58.2L390.328 60.4495L390.398 60.511L390.471 60.5681L392.313 58.2ZM405.313 63L405.945 60.0673L405.938 60.0657L405.313 63ZM428.513 68L429.148 65.0679L429.145 65.0673L428.513 68ZM462.913 125.6L465.597 126.942L462.913 125.6ZM450.913 140L452.703 142.407L452.723 142.393L452.742 142.378L450.913 140ZM432.113 149L432.951 151.881L432.113 149ZM407.313 149.2C402.129 149.2 396.665 148.811 390.919 148.028L390.108 153.972C396.095 154.789 401.831 155.2 407.313 155.2V149.2ZM390.86 148.02C385.274 147.371 379.964 146.333 374.928 144.913L373.299 150.687C378.662 152.2 384.286 153.296 390.167 153.98L390.86 148.02ZM374.928 144.913C369.868 143.486 365.37 141.811 361.42 139.9L358.807 145.3C363.123 147.389 367.958 149.181 373.299 150.687L374.928 144.913ZM361.415 139.897C358.241 138.369 356.267 136.501 355.171 134.408L349.856 137.192C351.693 140.699 354.786 143.364 358.812 145.303L361.415 139.897ZM355.197 134.458C353.99 132.045 353.565 129.574 353.89 126.972L347.936 126.228C347.462 130.026 348.103 133.688 349.83 137.142L355.197 134.458ZM353.89 126.972C354.227 124.274 355.166 121.99 356.681 120.042L351.945 116.358C349.727 119.21 348.399 122.526 347.936 126.228L353.89 126.972ZM356.728 119.98C358.184 118.004 360.064 116.731 362.471 116.103L360.956 110.297C357.23 111.269 354.176 113.329 351.898 116.42L356.728 119.98ZM362.587 116.07C364.763 115.408 367.465 115.604 370.886 117.138L373.34 111.662C369.029 109.73 364.797 109.126 360.84 110.33L362.587 116.07ZM370.829 117.111C376.142 119.628 382.107 121.563 388.701 122.937L389.925 117.063C383.72 115.77 378.218 113.972 373.398 111.689L370.829 117.111ZM388.701 122.937C395.27 124.305 401.477 125 407.313 125V119C401.95 119 396.156 118.361 389.925 117.063L388.701 122.937ZM407.313 125C416.172 125 423.095 123.897 427.355 121.111L424.072 116.089C421.399 117.837 416.055 119 407.313 119V125ZM427.377 121.096C431.577 118.296 434.113 114.522 434.113 109.8H428.113C428.113 112.011 427.049 114.104 424.049 116.104L427.377 121.096ZM434.113 109.8C434.113 105.751 432.37 102.4 429.093 99.9848L425.534 104.815C427.323 106.134 428.113 107.716 428.113 109.8H434.113ZM429.155 100.032C426.18 97.718 421.262 96.0113 414.938 94.6657L413.689 100.534C419.898 101.855 423.646 103.349 425.471 104.768L429.155 100.032ZM414.94 94.6662L391.54 89.6662L390.286 95.5338L413.686 100.534L414.94 94.6662ZM391.525 89.6631C379.079 87.0702 370.198 82.6084 364.499 76.5453L360.127 80.6547C366.961 87.925 377.147 92.7965 390.301 95.5369L391.525 89.6631ZM364.499 76.5453C358.835 70.5192 355.913 62.6938 355.913 52.8H349.913C349.913 63.9729 353.259 73.3475 360.127 80.6547L364.499 76.5453ZM355.913 52.8C355.913 46.2817 357.226 40.482 359.797 35.3416L354.43 32.6583C351.4 38.718 349.913 45.4516 349.913 52.8H355.913ZM359.784 35.3664C362.511 30.0359 366.288 25.5124 371.142 21.7779L367.484 17.0221C361.939 21.2876 357.582 26.4974 354.443 32.6336L359.784 35.3664ZM371.113 21.8C376.128 18.0391 382.064 15.1212 388.966 13.0764L387.261 7.32359C379.762 9.54548 373.165 12.7609 367.513 17L371.113 21.8ZM388.999 13.0662C396.003 10.9014 403.832 9.8 412.513 9.8V3.8C403.328 3.8 394.89 4.96528 387.227 7.33378L388.999 13.0662ZM412.513 9.8C419.214 9.8 425.992 10.5729 432.851 12.1259L434.176 6.27405C426.901 4.62704 419.679 3.8 412.513 3.8V9.8ZM432.914 12.1396C439.857 13.5538 445.73 15.7185 450.589 18.5841L453.637 13.4159C448.096 10.1481 441.57 7.7795 434.112 6.26036L432.914 12.1396ZM450.726 18.6598C453.285 19.9951 454.983 21.7452 456.005 23.8898L461.422 21.3102C459.776 17.8548 457.075 15.2049 453.501 13.3402L450.726 18.6598ZM456.005 23.8898C457.11 26.2112 457.545 28.6099 457.325 31.1401L463.302 31.6599C463.615 28.0567 462.983 24.5888 461.422 21.3102L456.005 23.8898ZM457.326 31.1284C457.113 33.4634 456.28 35.493 454.797 37.2929L459.429 41.1071C461.68 38.3736 462.98 35.2032 463.301 31.6716L457.326 31.1284ZM454.73 37.3776C453.448 39.0539 451.651 40.2462 449.156 40.8971L450.671 46.7029C454.309 45.7538 457.312 43.8794 459.496 41.0223L454.73 37.3776ZM449.248 40.8746C447.158 41.3498 444.298 41.0372 440.473 39.4334L438.153 44.9666C442.595 46.8295 446.802 47.5836 450.578 46.7254L449.248 40.8746ZM440.54 39.4625C436.398 37.6053 431.74 36.2732 426.594 35.4387L425.633 41.3613C430.353 42.1268 434.496 43.328 438.086 44.9375L440.54 39.4625ZM426.686 35.4551C421.712 34.488 416.853 34 412.113 34V40C416.44 40 420.915 40.4454 425.541 41.3448L426.686 35.4551ZM412.113 34C406.954 34 402.402 34.6254 398.532 35.965L400.495 41.6349C403.558 40.5746 407.406 40 412.113 40V34ZM398.631 35.9327C394.779 37.118 391.578 38.9697 389.256 41.6245L393.771 45.5755C395.181 43.9636 397.314 42.6153 400.396 41.6673L398.631 35.9327ZM389.185 41.7082C387.008 44.3871 385.913 47.525 385.913 51H391.913C391.913 48.875 392.552 47.0796 393.842 45.4918L389.185 41.7082ZM385.913 51C385.913 54.7351 387.474 57.9311 390.328 60.4495L394.298 55.9505C392.619 54.4689 391.913 52.8649 391.913 51H385.913ZM390.471 60.5681C393.447 62.882 398.364 64.5887 404.689 65.9343L405.938 60.0657C399.729 58.7446 395.98 57.2514 394.155 55.8319L390.471 60.5681ZM404.681 65.9327L427.881 70.9327L429.145 65.0673L405.945 60.0673L404.681 65.9327ZM427.879 70.9321C440.494 73.6634 449.547 78.076 455.392 83.9213L459.635 79.6787C452.68 72.724 442.399 67.9366 429.148 65.0679L427.879 70.9321ZM455.392 83.9213C461.152 89.6814 464.113 97.2126 464.113 106.8H470.113C470.113 95.854 466.674 86.7186 459.635 79.6787L455.392 83.9213ZM464.113 106.8C464.113 113.318 462.8 119.118 460.23 124.258L465.597 126.942C468.626 120.882 470.113 114.148 470.113 106.8H464.113ZM460.23 124.258C457.643 129.433 453.942 133.885 449.084 137.622L452.742 142.378C458.284 138.115 462.584 132.967 465.597 126.942L460.23 124.258ZM449.123 137.593C444.256 141.212 438.326 144.068 431.275 146.119L432.951 151.881C440.568 149.665 447.171 146.522 452.703 142.407L449.123 137.593ZM431.275 146.119C424.263 148.159 416.286 149.2 407.313 149.2V155.2C416.741 155.2 425.297 154.107 432.951 151.881L431.275 146.119ZM489.987 147L487.823 149.078L487.844 149.1L487.865 149.121L489.987 147ZM489.987 13.8L487.909 11.6358L487.887 11.657L487.865 11.6787L489.987 13.8ZM589.987 21.4L587.916 23.5708L587.933 23.5871L587.951 23.6031L589.987 21.4ZM589.987 89.2L592.04 91.3876L592.041 91.3865L589.987 89.2ZM521.987 101.4V98.4H518.987V101.4H521.987ZM517.387 147L519.553 149.076L519.574 149.054L519.595 149.031L517.387 147ZM521.987 73.2H518.987V76.2H521.987V73.2ZM562.587 68.8L564.44 71.159L564.466 71.1388L564.491 71.1182L562.587 68.8ZM562.587 41.6L564.44 39.241V39.241L562.587 41.6ZM521.987 37.2V34.2H518.987V37.2H521.987ZM503.587 148.8C498.27 148.8 494.593 147.363 492.108 144.879L487.865 149.121C491.781 153.037 497.17 154.8 503.587 154.8V148.8ZM492.151 144.922C489.621 142.287 488.187 138.51 488.187 133.2H482.187C482.187 139.623 483.952 145.046 487.823 149.078L492.151 144.922ZM488.187 133.2V27.6H482.187V133.2H488.187ZM488.187 27.6C488.187 22.1273 489.636 18.3938 492.108 15.9213L487.865 11.6787C483.938 15.6062 482.187 21.0727 482.187 27.6H488.187ZM492.064 15.9641C494.699 13.4346 498.476 12 503.787 12V5.99999C497.364 5.99999 491.941 7.7654 487.909 11.6358L492.064 15.9641ZM503.787 12H552.987V5.99999H503.787V12ZM552.987 12C568.481 12 579.974 15.9951 587.916 23.5708L592.057 19.2292C582.666 10.2716 569.492 5.99999 552.987 5.99999V12ZM587.951 23.6031C596.014 31.0554 600.187 41.4538 600.187 55.2H606.187C606.187 40.1462 601.56 28.0113 592.023 19.1969L587.951 23.6031ZM600.187 55.2C600.187 68.9446 596.014 79.4222 587.933 87.0135L592.041 91.3865C601.56 82.4445 606.187 70.2553 606.187 55.2H600.187ZM587.934 87.0124C579.993 94.4649 568.493 98.4 552.987 98.4V104.4C569.48 104.4 582.647 100.202 592.04 91.3876L587.934 87.0124ZM552.987 98.4H521.987V104.4H552.987V98.4ZM518.987 101.4V133.2H524.987V101.4H518.987ZM518.987 133.2C518.987 138.543 517.6 142.337 515.179 144.969L519.595 149.031C523.307 144.996 524.987 139.59 524.987 133.2H518.987ZM515.221 144.924C512.91 147.336 509.224 148.8 503.587 148.8V154.8C510.216 154.8 515.731 153.064 519.553 149.076L515.221 144.924ZM521.987 76.2H546.587V70.2H521.987V76.2ZM546.587 76.2C553.893 76.2 559.983 74.6607 564.44 71.159L560.733 66.441C557.723 68.806 553.147 70.2 546.587 70.2V76.2ZM564.491 71.1182C569.083 67.3463 571.187 61.8603 571.187 55.2H565.187C565.187 60.5397 563.557 64.1203 560.682 66.4818L564.491 71.1182ZM571.187 55.2C571.187 48.4383 569.1 42.9021 564.44 39.241L560.733 43.9589C563.54 46.1646 565.187 49.6951 565.187 55.2H571.187ZM564.44 39.241C559.983 35.7393 553.893 34.2 546.587 34.2V40.2C553.147 40.2 557.723 41.594 560.733 43.9589L564.44 39.241ZM546.587 34.2H521.987V40.2H546.587V34.2ZM518.987 37.2V73.2H524.987V37.2H518.987ZM625.143 145.2L622.979 147.278L623.021 147.322L623.065 147.364L625.143 145.2ZM625.143 14L627.264 16.1213V16.1213L625.143 14ZM718.143 33.8L720.264 35.9213L720.293 35.8927L720.321 35.8632L718.143 33.8ZM655.543 37.4V34.4H652.543V37.4H655.543ZM655.543 64.2H652.543V67.2H655.543V64.2ZM713.543 67.8L711.422 69.9213L711.45 69.95L711.48 69.9779L713.543 67.8ZM713.543 89L711.48 86.8221L711.45 86.85L711.422 86.8787L713.543 89ZM655.543 92.6V89.6H652.543V92.6H655.543ZM655.543 121.6H652.543V124.6H655.543V121.6ZM718.143 125.4L715.965 127.463L715.993 127.493L716.022 127.521L718.143 125.4ZM639.543 147C633.769 147 629.821 145.532 627.221 143.036L623.065 147.364C627.132 151.268 632.783 153 639.543 153V147ZM627.307 143.122C624.8 140.511 623.343 136.62 623.343 131H617.343C617.343 137.647 619.086 143.222 622.979 147.278L627.307 143.122ZM623.343 131V28H617.343V131H623.343ZM623.343 28C623.343 22.372 624.803 18.5822 627.264 16.1213L623.022 11.8787C619.083 15.8178 617.343 21.3614 617.343 28H623.343ZM627.264 16.1213C629.869 13.5169 633.801 12 639.543 12V5.99999C632.752 5.99999 627.084 7.81638 623.022 11.8787L627.264 16.1213ZM639.543 12H707.343V5.99999H639.543V12ZM707.343 12C711.681 12 714.383 13.0824 716.022 14.7213L720.264 10.4787C717.103 7.31763 712.605 5.99999 707.343 5.99999V12ZM716.022 14.7213C717.69 16.3899 718.743 18.9866 718.743 23H724.743C724.743 17.9467 723.396 13.6101 720.264 10.4787L716.022 14.7213ZM718.743 23C718.743 27.1641 717.679 29.9272 715.965 31.7368L720.321 35.8632C723.406 32.6061 724.743 28.1693 724.743 23H718.743ZM716.022 31.6787C714.383 33.3176 711.681 34.4 707.343 34.4V40.4C712.605 40.4 717.103 39.0824 720.264 35.9213L716.022 31.6787ZM707.343 34.4H655.543V40.4H707.343V34.4ZM652.543 37.4V64.2H658.543V37.4H652.543ZM655.543 67.2H702.943V61.2H655.543V67.2ZM702.943 67.2C707.119 67.2 709.768 68.2679 711.422 69.9213L715.664 65.6787C712.518 62.5321 708.101 61.2 702.943 61.2V67.2ZM711.48 69.9779C713.233 71.6392 714.343 74.2679 714.343 78.4H720.343C720.343 73.1988 718.919 68.7608 715.606 65.6221L711.48 69.9779ZM714.343 78.4C714.343 82.5321 713.233 85.1608 711.48 86.8221L715.606 91.1779C718.919 88.0392 720.343 83.6012 720.343 78.4H714.343ZM711.422 86.8787C709.768 88.5321 707.119 89.6 702.943 89.6V95.6C708.101 95.6 712.518 94.2679 715.664 91.1213L711.422 86.8787ZM702.943 89.6H655.543V95.6H702.943V89.6ZM652.543 92.6V121.6H658.543V92.6H652.543ZM655.543 124.6H707.343V118.6H655.543V124.6ZM707.343 124.6C711.638 124.6 714.319 125.725 715.965 127.463L720.321 123.337C717.167 120.008 712.648 118.6 707.343 118.6V124.6ZM716.022 127.521C717.69 129.19 718.743 131.787 718.743 135.8H724.743C724.743 130.747 723.396 126.41 720.264 123.279L716.022 127.521ZM718.743 135.8C718.743 139.976 717.675 142.625 716.022 144.279L720.264 148.521C723.411 145.375 724.743 140.958 724.743 135.8H718.743ZM716.022 144.279C714.383 145.918 711.681 147 707.343 147V153C712.605 153 717.103 151.682 720.264 148.521L716.022 144.279ZM707.343 147H639.543V153H707.343V147ZM747.995 147L745.83 149.078L745.852 149.1L745.873 149.121L747.995 147ZM747.995 13.8L745.917 11.6358L745.895 11.657L745.873 11.6787L747.995 13.8ZM847.995 20.8L845.978 23.0214L845.996 23.0376L846.014 23.0535L847.995 20.8ZM855.195 76.6L852.622 75.0565L852.617 75.0643L852.613 75.072L855.195 76.6ZM838.195 91.8L839.477 94.5122L839.487 94.5073L839.497 94.5023L838.195 91.8ZM810.995 97L808.253 95.7816L806.378 100H810.995V97ZM812.595 93.4V90.4H810.645L809.853 92.1816L812.595 93.4ZM837.395 97.6L835.784 100.131L835.812 100.149L835.84 100.166L837.395 97.6ZM848.395 110L845.737 111.392L845.754 111.425L845.772 111.457L848.395 110ZM858.395 128L861.021 126.551L861.017 126.543L858.395 128ZM861.395 139.4L864.392 139.511L864.393 139.507L861.395 139.4ZM856.995 148.4L858.938 150.686L858.947 150.678L856.995 148.4ZM832.395 148.6L830.73 151.096L830.754 151.112L830.777 151.127L832.395 148.6ZM823.795 138.6L821.16 140.035L821.168 140.049L821.176 140.063L823.795 138.6ZM805.595 105.2L808.229 103.765L808.228 103.763L805.595 105.2ZM799.395 99.2L798.053 101.883L798.14 101.927L798.23 101.965L799.395 99.2ZM779.995 97.4V94.4H776.995V97.4H779.995ZM775.395 147L777.56 149.076L777.582 149.054L777.602 149.031L775.395 147ZM779.995 71.4H776.995V74.4H779.995V71.4ZM820.595 67.2L818.795 64.8L820.595 67.2ZM820.595 41.6L818.741 43.9589L818.768 43.9798L818.795 44L820.595 41.6ZM779.995 37.2V34.2H776.995V37.2H779.995ZM761.595 148.8C756.277 148.8 752.6 147.363 750.116 144.879L745.873 149.121C749.789 153.037 755.178 154.8 761.595 154.8V148.8ZM750.159 144.922C747.629 142.287 746.195 138.51 746.195 133.2H740.195C740.195 139.623 741.96 145.046 745.83 149.078L750.159 144.922ZM746.195 133.2V27.6H740.195V133.2H746.195ZM746.195 27.6C746.195 22.1273 747.643 18.3938 750.116 15.9213L745.873 11.6787C741.946 15.6062 740.195 21.0727 740.195 27.6H746.195ZM750.072 15.9641C752.707 13.4346 756.484 12 761.795 12V5.99999C755.371 5.99999 749.949 7.7654 745.917 11.6358L750.072 15.9641ZM761.795 12H810.995V5.99999H761.795V12ZM810.995 12C826.525 12 838.039 15.8147 845.978 23.0214L850.011 18.5786C840.617 10.052 827.464 5.99999 810.995 5.99999V12ZM846.014 23.0535C854.046 30.1117 858.195 40.0222 858.195 53.2H864.195C864.195 38.6445 859.543 26.955 849.975 18.5465L846.014 23.0535ZM858.195 53.2C858.195 61.6721 856.303 68.9221 852.622 75.0565L857.767 78.1435C862.086 70.9446 864.195 62.5946 864.195 53.2H858.195ZM852.613 75.072C849.075 81.0497 843.877 85.7299 836.892 89.0977L839.497 94.5023C847.446 90.6701 853.581 85.2169 857.776 78.128L852.613 75.072ZM836.912 89.0878C830.09 92.313 821.491 94 810.995 94V100C822.098 100 831.633 98.2203 839.477 94.5122L836.912 89.0878ZM813.736 98.2184L815.336 94.6184L809.853 92.1816L808.253 95.7816L813.736 98.2184ZM812.595 96.4H822.195V90.4H812.595V96.4ZM822.195 96.4C827.416 96.4 831.913 97.6674 835.784 100.131L839.005 95.069C834.077 91.9326 828.44 90.4 822.195 90.4V96.4ZM835.84 100.166C839.676 102.491 843 106.166 845.737 111.392L851.052 108.608C847.923 102.634 843.913 98.0428 838.949 95.0344L835.84 100.166ZM845.772 111.457L855.772 129.457L861.017 126.543L851.017 108.543L845.772 111.457ZM855.768 129.449C857.687 132.928 858.507 136.194 858.396 139.293L864.393 139.507C864.549 135.139 863.369 130.806 861.021 126.551L855.768 129.449ZM858.397 139.289C858.295 142.03 857.224 144.252 855.042 146.122L858.947 150.678C862.365 147.748 864.227 143.97 864.392 139.511L858.397 139.289ZM855.052 146.114C853.137 147.741 850.018 148.8 845.195 148.8V154.8C850.771 154.8 855.518 153.592 858.938 150.686L855.052 146.114ZM845.195 148.8C840.391 148.8 836.732 147.814 834.012 146.073L830.777 151.127C834.723 153.652 839.598 154.8 845.195 154.8V148.8ZM834.059 146.104C831.368 144.31 828.792 141.393 826.413 137.137L821.176 140.063C823.864 144.873 827.021 148.623 830.73 151.096L834.059 146.104ZM826.429 137.165L808.229 103.765L802.96 106.635L821.16 140.035L826.429 137.165ZM808.228 103.763C806.375 100.366 803.845 97.8186 800.559 96.4351L798.23 101.965C800.011 102.715 801.614 104.167 802.961 106.637L808.228 103.763ZM800.736 96.5167C797.847 95.072 794.571 94.4 790.995 94.4V100.4C793.818 100.4 796.142 100.928 798.053 101.883L800.736 96.5167ZM790.995 94.4H779.995V100.4H790.995V94.4ZM776.995 97.4V133.2H782.995V97.4H776.995ZM776.995 133.2C776.995 138.543 775.608 142.337 773.187 144.969L777.602 149.031C781.315 144.996 782.995 139.59 782.995 133.2H776.995ZM773.229 144.924C770.917 147.336 767.232 148.8 761.595 148.8V154.8C768.224 154.8 773.738 153.064 777.56 149.076L773.229 144.924ZM779.995 74.4H804.395V68.4H779.995V74.4ZM804.395 74.4C811.794 74.4 817.936 72.944 822.395 69.6L818.795 64.8C815.786 67.056 811.128 68.4 804.395 68.4V74.4ZM822.395 69.6C827.075 66.0895 829.195 60.7421 829.195 54.2H823.195C823.195 59.3912 821.581 62.7105 818.795 64.8L822.395 69.6ZM829.195 54.2C829.195 47.868 827.038 42.6829 822.395 39.2L818.795 44C821.617 46.1171 823.195 49.332 823.195 54.2H829.195ZM822.448 39.241C817.983 35.7327 811.819 34.2 804.395 34.2V40.2C811.104 40.2 815.74 41.6006 818.741 43.9589L822.448 39.241ZM804.395 34.2H779.995V40.2H804.395V34.2ZM776.995 37.2V71.4H782.995V37.2H776.995ZM919.224 151L919.63 148.028L919.6 148.023L919.571 148.02L919.224 151ZM888.824 142.6L890.131 139.9L890.126 139.897L888.824 142.6ZM881.224 135.8L878.541 137.142L878.554 137.167L878.567 137.192L881.224 135.8ZM879.624 126.6L882.601 126.972L879.624 126.6ZM883.024 118.2L885.392 120.042L885.416 120.011L885.439 119.98L883.024 118.2ZM890.424 113.2L891.181 116.103L891.24 116.088L891.298 116.07L890.424 113.2ZM900.824 114.4L902.108 111.689L902.08 111.675L902.051 111.662L900.824 114.4ZM918.024 120L918.636 117.063L918.024 120ZM954.424 118.6L956.066 121.111L956.077 121.104L956.088 121.096L954.424 118.6ZM956.024 102.4L954.182 104.768L954.213 104.792L954.245 104.815L956.024 102.4ZM943.024 97.6L942.397 100.534L942.4 100.534L943.024 97.6ZM919.624 92.6L920.251 89.6662L920.244 89.6646L920.236 89.6631L919.624 92.6ZM891.024 78.6L893.21 76.5453V76.5453L891.024 78.6ZM885.824 34L883.154 32.6336L883.147 32.6459L883.141 32.6583L885.824 34ZM898.024 19.4L896.224 17L896.21 17.011L896.195 17.0221L898.024 19.4ZM916.824 10.2L917.677 13.0764L917.693 13.0714L917.71 13.0662L916.824 10.2ZM962.224 9.19999L961.562 12.1259L961.594 12.1331L961.625 12.1396L962.224 9.19999ZM980.824 16L979.3 18.5841L979.367 18.6237L979.437 18.6598L980.824 16ZM987.424 22.6L984.716 23.8898L984.716 23.8898L987.424 22.6ZM989.024 31.4L992.012 31.6716L992.013 31.6599L989.024 31.4ZM985.824 39.2L983.508 37.2929L983.474 37.3347L983.441 37.3776L985.824 39.2ZM978.624 43.8L979.289 46.7254L979.335 46.7149L979.381 46.7029L978.624 43.8ZM968.024 42.2L966.797 44.9375L966.83 44.9525L966.864 44.9666L968.024 42.2ZM954.824 38.4L954.252 41.3448L954.298 41.3538L954.344 41.3613L954.824 38.4ZM928.224 38.8L929.107 41.6673L929.156 41.652L929.206 41.6349L928.224 38.8ZM920.224 43.6L917.966 41.6245L917.93 41.6657L917.896 41.7082L920.224 43.6ZM921.024 58.2L919.039 60.4495L919.109 60.511L919.182 60.5681L921.024 58.2ZM934.024 63L934.656 60.0673L934.649 60.0657L934.024 63ZM957.224 68L957.859 65.0679L957.856 65.0673L957.224 68ZM991.624 125.6L994.307 126.942L991.624 125.6ZM979.624 140L981.414 142.407L981.434 142.393L981.453 142.378L979.624 140ZM960.824 149L961.662 151.881L960.824 149ZM936.024 149.2C930.84 149.2 925.376 148.811 919.63 148.028L918.819 153.972C924.805 154.789 930.541 155.2 936.024 155.2V149.2ZM919.571 148.02C913.985 147.371 908.675 146.333 903.639 144.913L902.01 150.687C907.373 152.2 912.997 153.296 918.878 153.98L919.571 148.02ZM903.639 144.913C898.579 143.486 894.081 141.811 890.131 139.9L887.518 145.3C891.834 147.389 896.669 149.181 902.01 150.687L903.639 144.913ZM890.126 139.897C886.952 138.369 884.978 136.501 883.882 134.408L878.567 137.192C880.404 140.699 883.497 143.364 887.523 145.303L890.126 139.897ZM883.907 134.458C882.701 132.045 882.276 129.574 882.601 126.972L876.647 126.228C876.173 130.026 876.814 133.688 878.541 137.142L883.907 134.458ZM882.601 126.972C882.938 124.274 883.877 121.99 885.392 120.042L880.656 116.358C878.438 119.21 877.11 122.526 876.647 126.228L882.601 126.972ZM885.439 119.98C886.895 118.004 888.775 116.731 891.181 116.103L889.667 110.297C885.94 111.269 882.887 113.329 880.609 116.42L885.439 119.98ZM891.298 116.07C893.474 115.408 896.175 115.604 899.597 117.138L902.051 111.662C897.74 109.73 893.508 109.126 889.551 110.33L891.298 116.07ZM899.54 117.111C904.853 119.628 910.817 121.563 917.412 122.937L918.636 117.063C912.431 115.77 906.929 113.972 902.108 111.689L899.54 117.111ZM917.412 122.937C923.981 124.305 930.188 125 936.024 125V119C930.661 119 924.867 118.361 918.636 117.063L917.412 122.937ZM936.024 125C944.883 125 951.806 123.897 956.066 121.111L952.782 116.089C950.109 117.837 944.766 119 936.024 119V125ZM956.088 121.096C960.288 118.296 962.824 114.522 962.824 109.8H956.824C956.824 112.011 955.76 114.104 952.76 116.104L956.088 121.096ZM962.824 109.8C962.824 105.751 961.081 102.4 957.804 99.9848L954.245 104.815C956.034 106.134 956.824 107.716 956.824 109.8H962.824ZM957.866 100.032C954.891 97.718 949.973 96.0113 943.649 94.6657L942.4 100.534C948.609 101.855 952.357 103.349 954.182 104.768L957.866 100.032ZM943.651 94.6662L920.251 89.6662L918.997 95.5338L942.397 100.534L943.651 94.6662ZM920.236 89.6631C907.79 87.0702 898.909 82.6084 893.21 76.5453L888.838 80.6547C895.672 87.925 905.858 92.7965 919.012 95.5369L920.236 89.6631ZM893.21 76.5453C887.546 70.5192 884.624 62.6938 884.624 52.8H878.624C878.624 63.9729 881.97 73.3475 888.838 80.6547L893.21 76.5453ZM884.624 52.8C884.624 46.2817 885.937 40.482 888.508 35.3416L883.141 32.6583C880.111 38.718 878.624 45.4516 878.624 52.8H884.624ZM888.495 35.3664C891.222 30.0359 894.998 25.5124 899.853 21.7779L896.195 17.0221C890.65 21.2876 886.293 26.4974 883.154 32.6336L888.495 35.3664ZM899.824 21.8C904.839 18.0391 910.775 15.1212 917.677 13.0764L915.972 7.32359C908.473 9.54548 901.876 12.7609 896.224 17L899.824 21.8ZM917.71 13.0662C924.714 10.9014 932.543 9.8 941.224 9.8V3.8C932.039 3.8 923.601 4.96528 915.938 7.33378L917.71 13.0662ZM941.224 9.8C947.925 9.8 954.703 10.5729 961.562 12.1259L962.887 6.27405C955.612 4.62704 948.39 3.8 941.224 3.8V9.8ZM961.625 12.1396C968.568 13.5538 974.441 15.7185 979.3 18.5841L982.348 13.4159C976.807 10.1481 970.281 7.7795 962.823 6.26036L961.625 12.1396ZM979.437 18.6598C981.996 19.9951 983.694 21.7452 984.716 23.8898L990.133 21.3102C988.487 17.8548 985.786 15.2049 982.212 13.3402L979.437 18.6598ZM984.716 23.8898C985.821 26.2112 986.255 28.6099 986.036 31.1401L992.013 31.6599C992.326 28.0567 991.694 24.5888 990.133 21.3102L984.716 23.8898ZM986.036 31.1284C985.824 33.4634 984.991 35.493 983.508 37.2929L988.14 41.1071C990.391 38.3736 991.691 35.2032 992.012 31.6716L986.036 31.1284ZM983.441 37.3776C982.159 39.0539 980.362 40.2462 977.867 40.8971L979.381 46.7029C983.02 45.7538 986.022 43.8794 988.207 41.0223L983.441 37.3776ZM977.959 40.8746C975.869 41.3498 973.009 41.0372 969.184 39.4334L966.864 44.9666C971.306 46.8295 975.513 47.5836 979.289 46.7254L977.959 40.8746ZM969.251 39.4625C965.108 37.6053 960.451 36.2732 955.304 35.4387L954.344 41.3613C959.064 42.1268 963.207 43.328 966.797 44.9375L969.251 39.4625ZM955.397 35.4551C950.423 34.488 945.564 34 940.824 34V40C945.151 40 949.626 40.4454 954.252 41.3448L955.397 35.4551ZM940.824 34C935.665 34 931.113 34.6254 927.243 35.965L929.206 41.6349C932.269 40.5746 936.117 40 940.824 40V34ZM927.342 35.9327C923.49 37.118 920.289 38.9697 917.966 41.6245L922.482 45.5755C923.892 43.9636 926.025 42.6153 929.107 41.6673L927.342 35.9327ZM917.896 41.7082C915.719 44.3871 914.624 47.525 914.624 51H920.624C920.624 48.875 921.262 47.0796 922.553 45.4918L917.896 41.7082ZM914.624 51C914.624 54.7351 916.185 57.9311 919.039 60.4495L923.009 55.9505C921.33 54.4689 920.624 52.8649 920.624 51H914.624ZM919.182 60.5681C922.157 62.882 927.075 64.5887 933.4 65.9343L934.649 60.0657C928.44 58.7446 924.691 57.2514 922.866 55.8319L919.182 60.5681ZM933.392 65.9327L956.592 70.9327L957.856 65.0673L934.656 60.0673L933.392 65.9327ZM956.589 70.9321C969.205 73.6634 978.258 78.076 984.103 83.9213L988.346 79.6787C981.391 72.724 971.11 67.9366 957.859 65.0679L956.589 70.9321ZM984.103 83.9213C989.863 89.6814 992.824 97.2126 992.824 106.8H998.824C998.824 95.854 995.385 86.7186 988.346 79.6787L984.103 83.9213ZM992.824 106.8C992.824 113.318 991.511 119.118 988.941 124.258L994.307 126.942C997.337 120.882 998.824 114.148 998.824 106.8H992.824ZM988.941 124.258C986.353 129.433 982.653 133.885 977.795 137.622L981.453 142.378C986.995 138.115 991.295 132.967 994.307 126.942L988.941 124.258ZM977.834 137.593C972.967 141.212 967.036 144.068 959.986 146.119L961.662 151.881C969.279 149.665 975.881 146.522 981.414 142.407L977.834 137.593ZM959.986 146.119C952.974 148.159 944.997 149.2 936.024 149.2V155.2C945.452 155.2 954.008 154.107 961.662 151.881L959.986 146.119Z" fill="url(#paint1_linear_138_201)" mask="url(#path-1-outside-1_138_201)"/>
</g>
<defs>
<filter id="filter0_d_138_201" x="0.102295" y="0.800049" width="1005.72" height="165.4" filterUnits="userSpaceOnUse" color-interpolation-filters="sRGB">
<feFlood flood-opacity="0" result="BackgroundImageFix"/>
<feColorMatrix in="SourceAlpha" type="matrix" values="0 0 0 0 0 0 0 0 0 0 0 0 0 0 0 0 0 0 127 0" result="hardAlpha"/>
<feOffset dy="4"/>
<feGaussianBlur stdDeviation="5"/>
<feComposite in2="hardAlpha" operator="out"/>
<feColorMatrix type="matrix" values="0 0 0 0 0 0 0 0 0 0 0 0 0 0 0 0 0 0 0.5 0"/>
<feBlend mode="normal" in2="BackgroundImageFix" result="effect1_dropShadow_138_201"/>
<feBlend mode="normal" in="SourceGraphic" in2="effect1_dropShadow_138_201" result="shape"/>
</filter>
<linearGradient id="paint0_linear_138_201" x1="-70" y1="97.5" x2="1072" y2="97.5" gradientUnits="userSpaceOnUse">
<stop stop-color="#044214"/>
<stop offset="0.526667" stop-color="#009141"/>
<stop offset="1" stop-color="#FFC700"/>
</linearGradient>
<linearGradient id="paint1_linear_138_201" x1="-70" y1="97.5" x2="1072" y2="97.5" gradientUnits="userSpaceOnUse">
<stop stop-color="#032B0D"/>
<stop offset="0.0001" stop-color="#08912C"/>
</linearGradient>
</defs>
</svg>
