<svg width="815" height="74" viewBox="0 0 815 74" fill="none" xmlns="http://www.w3.org/2000/svg">
<path d="M10.4238 72C7.2905 72 4.8905 71.2 3.22383 69.6C1.62383 67.9333 0.823828 65.5667 0.823828 62.5V11C0.823828 7.93333 1.62383 5.6 3.22383 4C4.8905 2.33333 7.2905 1.5 10.4238 1.5H30.0238C42.2905 1.5 51.7572 4.56666 58.4238 10.7C65.1572 16.8333 68.5238 25.5 68.5238 36.7C68.5238 42.3 67.6572 47.3 65.9238 51.7C64.1905 56.0333 61.6905 59.7333 58.4238 62.8C55.1572 65.8 51.1238 68.1 46.3238 69.7C41.5905 71.2333 36.1572 72 30.0238 72H10.4238ZM19.2238 57.1H28.8238C32.3572 57.1 35.3905 56.6667 37.9238 55.8C40.5238 54.9333 42.6572 53.6667 44.3238 52C46.0572 50.3333 47.3238 48.2333 48.1238 45.7C48.9905 43.1667 49.4238 40.1667 49.4238 36.7C49.4238 29.7667 47.7238 24.6667 44.3238 21.4C40.9238 18.0667 35.7572 16.4 28.8238 16.4H19.2238V57.1ZM92.6371 72.9C89.7038 72.9 87.4371 72.1 85.8371 70.5C84.2371 68.8333 83.4371 66.5 83.4371 63.5V10C83.4371 6.93333 84.2371 4.6 85.8371 2.99999C87.4371 1.4 89.7038 0.599995 92.6371 0.599995C95.6371 0.599995 97.9038 1.4 99.4371 2.99999C101.037 4.6 101.837 6.93333 101.837 10V63.5C101.837 66.5 101.07 68.8333 99.5371 70.5C98.0038 72.1 95.7038 72.9 92.6371 72.9ZM144.789 73.1C142.123 73.1 139.323 72.9 136.389 72.5C133.523 72.1667 130.789 71.6333 128.189 70.9C125.589 70.1667 123.256 69.3 121.189 68.3C119.389 67.4333 118.123 66.3 117.389 64.9C116.656 63.4333 116.389 61.9 116.589 60.3C116.789 58.7 117.356 57.3 118.289 56.1C119.223 54.8333 120.456 54 121.989 53.6C123.523 53.1333 125.256 53.3333 127.189 54.2C129.723 55.4 132.589 56.3333 135.789 57C138.989 57.6667 141.989 58 144.789 58C149.189 58 152.256 57.4333 153.989 56.3C155.789 55.1 156.689 53.6333 156.689 51.9C156.689 50.3667 156.056 49.1333 154.789 48.2C153.589 47.2667 151.423 46.4667 148.289 45.8L136.589 43.3C130.189 41.9667 125.423 39.6333 122.289 36.3C119.156 32.9667 117.589 28.6667 117.589 23.4C117.589 19.9333 118.289 16.8 119.689 14C121.156 11.1333 123.189 8.7 125.789 6.69999C128.456 4.7 131.589 3.16666 135.189 2.09999C138.856 0.966663 142.923 0.399998 147.389 0.399998C150.856 0.399998 154.356 0.799997 157.889 1.59999C161.489 2.33333 164.589 3.46666 167.189 5C168.723 5.8 169.823 6.9 170.489 8.3C171.156 9.7 171.423 11.1667 171.289 12.7C171.156 14.1667 170.623 15.4667 169.689 16.6C168.823 17.7333 167.623 18.5 166.089 18.9C164.623 19.2333 162.856 18.9667 160.789 18.1C158.856 17.2333 156.656 16.6 154.189 16.2C151.789 15.7333 149.456 15.5 147.189 15.5C144.723 15.5 142.623 15.8 140.889 16.4C139.156 16.9333 137.823 17.7333 136.889 18.8C136.023 19.8667 135.589 21.1 135.589 22.5C135.589 23.9 136.156 25.1 137.289 26.1C138.489 27.0333 140.656 27.8333 143.789 28.5L155.389 31C161.856 32.4 166.689 34.7 169.889 37.9C173.089 41.1 174.689 45.2667 174.689 50.4C174.689 53.8667 173.989 57 172.589 59.8C171.189 62.6 169.189 65 166.589 67C163.989 68.9333 160.856 70.4333 157.189 71.5C153.523 72.5667 149.389 73.1 144.789 73.1ZM223.326 73.1C215.526 73.1 208.826 71.6 203.226 68.6C197.626 65.6 193.326 61.3667 190.326 55.9C187.393 50.4333 185.926 44.0333 185.926 36.7C185.926 31.2333 186.76 26.2667 188.426 21.8C190.16 17.3333 192.626 13.5 195.826 10.3C199.093 7.1 203.026 4.66666 207.626 2.99999C212.293 1.26666 217.526 0.399998 223.326 0.399998C226.393 0.399998 229.56 0.766664 232.826 1.5C236.16 2.16666 239.093 3.2 241.626 4.6C243.493 5.6 244.793 6.86666 245.526 8.4C246.26 9.93333 246.493 11.5 246.226 13.1C246.026 14.7 245.46 16.1333 244.526 17.4C243.593 18.6667 242.393 19.5333 240.926 20C239.46 20.4 237.86 20.1667 236.126 19.3C234.126 18.3667 232.126 17.6667 230.126 17.2C228.193 16.6667 226.16 16.4 224.026 16.4C219.893 16.4 216.426 17.2 213.626 18.8C210.893 20.3333 208.826 22.6 207.426 25.6C206.026 28.6 205.326 32.3 205.326 36.7C205.326 41.1 206.026 44.8333 207.426 47.9C208.826 50.9 210.893 53.2 213.626 54.8C216.426 56.3333 219.893 57.1 224.026 57.1C225.76 57.1 227.626 56.9 229.626 56.5C231.626 56.0333 233.593 55.3333 235.526 54.4C237.526 53.5333 239.293 53.3 240.826 53.7C242.426 54.1 243.693 54.9 244.626 56.1C245.626 57.3 246.26 58.7 246.526 60.3C246.793 61.8333 246.56 63.3667 245.826 64.9C245.16 66.4333 243.96 67.6667 242.226 68.6C239.893 70 236.993 71.1 233.526 71.9C230.126 72.7 226.726 73.1 223.326 73.1ZM292.23 73.1C285.097 73.1 278.83 71.6 273.43 68.6C268.03 65.5333 263.83 61.2667 260.83 55.8C257.897 50.3333 256.43 43.9667 256.43 36.7C256.43 31.2333 257.263 26.2667 258.93 21.8C260.663 17.3333 263.097 13.5 266.23 10.3C269.43 7.1 273.23 4.66666 277.63 2.99999C282.03 1.26666 286.897 0.399998 292.23 0.399998C299.363 0.399998 305.597 1.9 310.93 4.9C316.33 7.9 320.53 12.1333 323.53 17.6C326.53 23 328.03 29.3667 328.03 36.7C328.03 42.1667 327.163 47.1333 325.43 51.6C323.763 56.0667 321.33 59.9333 318.13 63.2C314.997 66.4 311.23 68.8667 306.83 70.6C302.43 72.2667 297.563 73.1 292.23 73.1ZM292.23 57.7C295.763 57.7 298.763 56.8667 301.23 55.2C303.697 53.5333 305.597 51.1333 306.93 48C308.263 44.8667 308.93 41.1 308.93 36.7C308.93 30.1 307.463 24.9667 304.53 21.3C301.597 17.6333 297.497 15.8 292.23 15.8C288.763 15.8 285.763 16.6333 283.23 18.3C280.763 19.9 278.863 22.2667 277.53 25.4C276.197 28.4667 275.53 32.2333 275.53 36.7C275.53 43.3 276.997 48.4667 279.93 52.2C282.863 55.8667 286.963 57.7 292.23 57.7ZM371.839 72.9C369.305 72.9 367.239 72.3667 365.639 71.3C364.105 70.2333 362.805 68.5333 361.739 66.2L337.539 12.8C336.472 10.4667 336.139 8.36666 336.539 6.5C336.939 4.63333 337.872 3.2 339.339 2.2C340.805 1.13333 342.639 0.599995 344.839 0.599995C347.572 0.599995 349.605 1.2 350.939 2.4C352.339 3.6 353.539 5.36666 354.539 7.7L374.939 54.9H369.339L389.739 7.59999C390.739 5.26666 391.939 3.53333 393.339 2.4C394.739 1.2 396.705 0.599995 399.239 0.599995C401.305 0.599995 403.039 1.13333 404.439 2.2C405.839 3.2 406.705 4.63333 407.039 6.5C407.439 8.36666 407.105 10.4667 406.039 12.8L381.739 66.2C380.739 68.5333 379.472 70.2333 377.939 71.3C376.405 72.3667 374.372 72.9 371.839 72.9ZM428.857 72C425.724 72 423.324 71.2 421.657 69.6C420.057 67.9333 419.257 65.5667 419.257 62.5V11C419.257 7.93333 420.057 5.6 421.657 4C423.324 2.33333 425.724 1.5 428.857 1.5H462.757C465.157 1.5 466.957 2.1 468.157 3.3C469.357 4.5 469.957 6.23333 469.957 8.49999C469.957 10.8333 469.357 12.6333 468.157 13.9C466.957 15.1 465.157 15.7 462.757 15.7H436.857V29.1H460.557C462.891 29.1 464.657 29.7 465.857 30.9C467.124 32.1 467.757 33.8667 467.757 36.2C467.757 38.5333 467.124 40.3 465.857 41.5C464.657 42.7 462.891 43.3 460.557 43.3H436.857V57.8H462.757C465.157 57.8 466.957 58.4333 468.157 59.7C469.357 60.9 469.957 62.6333 469.957 64.9C469.957 67.2333 469.357 69 468.157 70.2C466.957 71.4 465.157 72 462.757 72H428.857ZM493.883 72.9C490.95 72.9 488.683 72.1 487.083 70.5C485.483 68.8333 484.683 66.5333 484.683 63.6V10.8C484.683 7.8 485.483 5.5 487.083 3.89999C488.75 2.3 491.05 1.5 493.983 1.5H518.583C526.583 1.5 532.75 3.46666 537.083 7.4C541.483 11.2667 543.683 16.6667 543.683 23.6C543.683 28.0667 542.683 31.9667 540.683 35.3C538.75 38.5667 535.917 41.1 532.183 42.9C528.517 44.6333 523.983 45.5 518.583 45.5L519.383 43.7H524.183C527.05 43.7 529.583 44.4 531.783 45.8C533.983 47.1333 535.817 49.2 537.283 52L542.283 61C543.35 62.9333 543.85 64.8333 543.783 66.7C543.717 68.5 542.983 70 541.583 71.2C540.25 72.3333 538.283 72.9 535.683 72.9C533.083 72.9 530.95 72.3667 529.283 71.3C527.683 70.2333 526.25 68.5667 524.983 66.3L515.883 49.6C515.083 48.1333 514.05 47.1333 512.783 46.6C511.583 46 510.183 45.7 508.583 45.7H503.083V63.6C503.083 66.5333 502.317 68.8333 500.783 70.5C499.25 72.1 496.95 72.9 493.883 72.9ZM503.083 32.7H515.283C518.817 32.7 521.517 32 523.383 30.6C525.25 29.2 526.183 27.0333 526.183 24.1C526.183 21.3 525.25 19.2 523.383 17.8C521.517 16.3333 518.817 15.6 515.283 15.6H503.083V32.7ZM625.902 73.1C618.769 73.1 612.502 71.6 607.102 68.6C601.702 65.5333 597.502 61.2667 594.502 55.8C591.569 50.3333 590.102 43.9667 590.102 36.7C590.102 31.2333 590.935 26.2667 592.602 21.8C594.335 17.3333 596.769 13.5 599.902 10.3C603.102 7.1 606.902 4.66666 611.302 2.99999C615.702 1.26666 620.569 0.399998 625.902 0.399998C633.035 0.399998 639.269 1.9 644.602 4.9C650.002 7.9 654.202 12.1333 657.202 17.6C660.202 23 661.702 29.3667 661.702 36.7C661.702 42.1667 660.835 47.1333 659.102 51.6C657.435 56.0667 655.002 59.9333 651.802 63.2C648.669 66.4 644.902 68.8667 640.502 70.6C636.102 72.2667 631.235 73.1 625.902 73.1ZM625.902 57.7C629.435 57.7 632.435 56.8667 634.902 55.2C637.369 53.5333 639.269 51.1333 640.602 48C641.935 44.8667 642.602 41.1 642.602 36.7C642.602 30.1 641.135 24.9667 638.202 21.3C635.269 17.6333 631.169 15.8 625.902 15.8C622.435 15.8 619.435 16.6333 616.902 18.3C614.435 19.9 612.535 22.2667 611.202 25.4C609.869 28.4667 609.202 32.2333 609.202 36.7C609.202 43.3 610.669 48.4667 613.602 52.2C616.535 55.8667 620.635 57.7 625.902 57.7ZM707.766 73.1C702.633 73.1 698.099 72.4667 694.166 71.2C690.233 69.8667 686.899 67.9 684.166 65.3C681.499 62.7 679.466 59.4667 678.066 55.6C676.733 51.6667 676.066 47.1333 676.066 42V9.89999C676.066 6.83333 676.866 4.53333 678.466 2.99999C680.066 1.4 682.333 0.599995 685.266 0.599995C688.266 0.599995 690.533 1.4 692.066 2.99999C693.666 4.53333 694.466 6.83333 694.466 9.89999V42.2C694.466 47.3333 695.599 51.2 697.866 53.8C700.133 56.4 703.433 57.7 707.766 57.7C712.033 57.7 715.299 56.4 717.566 53.8C719.833 51.2 720.966 47.3333 720.966 42.2V9.89999C720.966 6.83333 721.733 4.53333 723.266 2.99999C724.866 1.4 727.133 0.599995 730.066 0.599995C732.999 0.599995 735.233 1.4 736.766 2.99999C738.299 4.53333 739.066 6.83333 739.066 9.89999V42C739.066 48.8667 737.866 54.6333 735.466 59.3C733.133 63.9 729.633 67.3667 724.966 69.7C720.299 71.9667 714.566 73.1 707.766 73.1ZM764.571 72.9C761.637 72.9 759.371 72.1 757.771 70.5C756.171 68.8333 755.371 66.5333 755.371 63.6V10.8C755.371 7.8 756.171 5.5 757.771 3.89999C759.437 2.3 761.737 1.5 764.671 1.5H789.271C797.271 1.5 803.437 3.46666 807.771 7.4C812.171 11.2667 814.371 16.6667 814.371 23.6C814.371 28.0667 813.371 31.9667 811.371 35.3C809.437 38.5667 806.604 41.1 802.871 42.9C799.204 44.6333 794.671 45.5 789.271 45.5L790.071 43.7H794.871C797.737 43.7 800.271 44.4 802.471 45.8C804.671 47.1333 806.504 49.2 807.971 52L812.971 61C814.037 62.9333 814.537 64.8333 814.471 66.7C814.404 68.5 813.671 70 812.271 71.2C810.937 72.3333 808.971 72.9 806.371 72.9C803.771 72.9 801.637 72.3667 799.971 71.3C798.371 70.2333 796.937 68.5667 795.671 66.3L786.571 49.6C785.771 48.1333 784.737 47.1333 783.471 46.6C782.271 46 780.871 45.7 779.271 45.7H773.771V63.6C773.771 66.5333 773.004 68.8333 771.471 70.5C769.937 72.1 767.637 72.9 764.571 72.9ZM773.771 32.7H785.971C789.504 32.7 792.204 32 794.071 30.6C795.937 29.2 796.871 27.0333 796.871 24.1C796.871 21.3 795.937 19.2 794.071 17.8C792.204 16.3333 789.504 15.6 785.971 15.6H773.771V32.7Z" fill="#FFC700"/>
</svg>
