<svg width="616" height="90" viewBox="0 0 616 90" fill="none" xmlns="http://www.w3.org/2000/svg">
<g filter="url(#filter0_d_138_200)">
<path d="M10.2422 75V7.8H20.8983V75H10.2422ZM33.586 75V7.608H43.762L76.114 58.2V7.8H85.714V75.192H75.538L43.282 25.08V75H33.586ZM144.639 17.304H124.287V75H113.535V17.304H93.1833V7.8H144.639V17.304ZM205.464 75.96C203.736 75.96 202.008 75.64 200.28 75C198.552 74.424 196.792 73.496 195 72.216C193.272 70.872 191.48 69.208 189.624 67.224C187.768 65.176 185.784 62.744 183.672 59.928C181.624 57.048 179.448 53.752 177.144 50.04C176.568 50.104 175.8 50.136 174.84 50.136C173.88 50.136 173.112 50.136 172.536 50.136C171.064 50.136 169.464 50.136 167.736 50.136C166.072 50.136 164.44 50.104 162.84 50.04V75H151.992V7.704C155.128 7.512 158.008 7.352 160.632 7.224C163.256 7.096 165.688 7 167.928 6.936C170.232 6.872 172.472 6.84 174.648 6.84C179.704 6.84 183.992 7.192 187.512 7.89599C191.096 8.6 194.008 9.752 196.248 11.352C198.488 12.952 200.12 15.032 201.144 17.592C202.232 20.152 202.776 23.256 202.776 26.904C202.776 30.808 202.168 34.136 200.952 36.888C199.8 39.576 198.104 41.784 195.864 43.512C193.624 45.176 190.936 46.488 187.8 47.448C189.912 50.584 191.864 53.304 193.656 55.608C195.512 57.848 197.208 59.704 198.744 61.176C200.28 62.584 201.688 63.672 202.968 64.44C204.312 65.144 205.56 65.496 206.712 65.496C206.84 65.496 207.064 65.496 207.384 65.496C207.704 65.432 207.96 65.368 208.152 65.304L208.248 75.672C207.928 75.736 207.544 75.8 207.096 75.864C206.648 75.928 206.104 75.96 205.464 75.96ZM174.552 41.208C177.432 41.208 179.928 40.984 182.04 40.536C184.216 40.088 186.008 39.384 187.416 38.424C188.824 37.4 189.848 36.088 190.488 34.488C191.192 32.824 191.544 30.776 191.544 28.344C191.544 25.208 191.032 22.712 190.008 20.856C189.048 18.936 187.352 17.56 184.92 16.728C182.488 15.896 179.16 15.48 174.936 15.48C173.72 15.48 172.664 15.48 171.768 15.48C170.872 15.48 169.976 15.512 169.08 15.576C168.248 15.64 167.32 15.704 166.296 15.768C165.336 15.768 164.184 15.832 162.84 15.96V40.92C163.992 40.984 165.048 41.048 166.008 41.112C166.968 41.112 167.928 41.144 168.888 41.208C169.848 41.208 170.776 41.208 171.672 41.208C172.632 41.208 173.592 41.208 174.552 41.208ZM240.935 67.32C243.047 67.32 245.031 67.096 246.887 66.648C248.807 66.136 250.535 65.304 252.071 64.152C253.607 63 254.951 61.464 256.103 59.544C257.255 57.56 258.119 55.064 258.695 52.056C259.335 49.048 259.655 45.496 259.655 41.4C259.655 37.24 259.335 33.656 258.695 30.648C258.055 27.64 257.159 25.144 256.007 23.16C254.919 21.176 253.575 19.64 251.975 18.552C250.439 17.4 248.711 16.6 246.791 16.152C244.935 15.64 242.983 15.384 240.935 15.384C238.951 15.384 237.031 15.64 235.175 16.152C233.383 16.6 231.687 17.4 230.087 18.552C228.551 19.64 227.207 21.208 226.055 23.256C224.903 25.24 224.007 27.736 223.367 30.744C222.791 33.688 222.503 37.272 222.503 41.496C222.503 45.592 222.791 49.112 223.367 52.056C224.007 55 224.903 57.464 226.055 59.448C227.271 61.432 228.647 63 230.183 64.152C231.719 65.304 233.383 66.136 235.175 66.648C237.031 67.096 238.951 67.32 240.935 67.32ZM241.031 75.96C237.575 75.96 234.343 75.608 231.335 74.904C228.391 74.2 225.671 73.048 223.175 71.448C220.743 69.784 218.663 67.64 216.935 65.016C215.207 62.328 213.863 59.064 212.903 55.224C212.007 51.32 211.559 46.712 211.559 41.4C211.559 36.088 212.007 31.512 212.903 27.672C213.799 23.768 215.111 20.504 216.839 17.88C218.567 15.192 220.647 13.048 223.079 11.448C225.511 9.784 228.199 8.6 231.143 7.89599C234.151 7.192 237.447 6.84 241.031 6.84C244.551 6.84 247.815 7.192 250.823 7.89599C253.895 8.6 256.615 9.752 258.983 11.352C261.415 12.888 263.495 15 265.223 17.688C266.951 20.312 268.295 23.576 269.255 27.48C270.215 31.32 270.695 35.896 270.695 41.208C270.695 46.584 270.215 51.256 269.255 55.224C268.359 59.128 267.015 62.424 265.223 65.112C263.495 67.736 261.415 69.848 258.983 71.448C256.615 73.048 253.895 74.2 250.823 74.904C247.815 75.608 244.551 75.96 241.031 75.96ZM304.229 75.96C301.477 75.96 298.789 75.928 296.165 75.864C293.541 75.8 290.949 75.704 288.389 75.576C285.829 75.448 283.301 75.32 280.805 75.192V7.8C283.557 7.54399 286.181 7.352 288.677 7.224C291.173 7.096 293.605 7 295.973 6.936C298.405 6.872 300.901 6.84 303.461 6.84C310.885 6.84 316.901 8.056 321.509 10.488C326.181 12.856 329.605 16.6 331.781 21.72C333.957 26.776 335.045 33.368 335.045 41.496C335.045 49.432 333.893 55.96 331.589 61.08C329.285 66.136 325.861 69.88 321.317 72.312C316.773 74.744 311.077 75.96 304.229 75.96ZM304.517 67.32C308.805 67.32 312.357 66.488 315.173 64.824C318.053 63.096 320.197 60.344 321.605 56.568C323.077 52.792 323.813 47.8 323.813 41.592C323.813 35.128 323.109 30.008 321.701 26.232C320.293 22.456 318.149 19.736 315.269 18.072C312.389 16.344 308.645 15.48 304.037 15.48C302.885 15.48 301.573 15.512 300.101 15.576C298.629 15.64 297.157 15.704 295.685 15.768C294.277 15.832 292.933 15.896 291.653 15.96V66.84C292.613 66.904 293.637 66.968 294.725 67.032C295.877 67.096 297.029 67.16 298.181 67.224C299.333 67.224 300.453 67.256 301.541 67.32C302.629 67.32 303.621 67.32 304.517 67.32ZM344.061 54.264V7.8H354.717V54.36C354.717 56.408 354.973 58.168 355.485 59.64C356.061 61.112 356.861 62.36 357.885 63.384C358.973 64.344 360.189 65.112 361.533 65.688C362.941 66.2 364.413 66.584 365.949 66.84C367.485 67.032 369.085 67.128 370.749 67.128C372.413 67.128 374.013 67.032 375.549 66.84C377.085 66.584 378.525 66.168 379.869 65.592C381.213 65.016 382.397 64.248 383.421 63.288C384.445 62.264 385.213 61.048 385.725 59.64C386.301 58.168 386.589 56.408 386.589 54.36V7.8H397.245V54.264C397.245 57.592 396.829 60.472 395.997 62.904C395.165 65.336 393.949 67.384 392.349 69.048C390.749 70.712 388.829 72.056 386.589 73.08C384.413 74.104 381.981 74.84 379.293 75.288C376.605 75.736 373.725 75.96 370.653 75.96C367.645 75.96 364.797 75.736 362.109 75.288C359.421 74.84 356.957 74.104 354.717 73.08C352.541 72.056 350.653 70.712 349.053 69.048C347.453 67.384 346.205 65.336 345.309 62.904C344.477 60.472 344.061 57.592 344.061 54.264ZM406.369 42.552C406.369 34.04 407.521 27.16 409.825 21.912C412.193 16.664 415.649 12.856 420.193 10.488C424.801 8.056 430.497 6.84 437.281 6.84C439.265 6.84 441.089 6.904 442.753 7.032C444.417 7.096 446.017 7.256 447.553 7.512C449.089 7.704 450.561 7.96 451.969 8.27999C453.441 8.59999 454.913 8.984 456.385 9.432L454.273 18.072C452.353 17.56 450.529 17.176 448.801 16.92C447.073 16.6 445.345 16.376 443.617 16.248C441.889 16.12 440.097 16.056 438.241 16.056C434.721 16.056 431.649 16.504 429.025 17.4C426.401 18.296 424.225 19.768 422.497 21.816C420.769 23.864 419.457 26.584 418.561 29.976C417.729 33.368 417.313 37.528 417.313 42.456C417.313 47 417.729 50.84 418.561 53.976C419.393 57.048 420.641 59.544 422.305 61.464C424.033 63.32 426.145 64.696 428.641 65.592C431.201 66.424 434.177 66.84 437.569 66.84C440.577 66.84 443.713 66.648 446.977 66.264C450.241 65.816 453.217 65.208 455.905 64.44L457.825 72.984C456.353 73.432 454.785 73.848 453.121 74.232C451.521 74.616 449.793 74.936 447.937 75.192C446.145 75.448 444.257 75.64 442.273 75.768C440.289 75.896 438.177 75.96 435.937 75.96C431.137 75.96 426.881 75.384 423.169 74.232C419.521 73.016 416.449 71.096 413.953 68.472C411.457 65.848 409.569 62.424 408.289 58.2C407.009 53.912 406.369 48.696 406.369 42.552ZM466.805 75V7.8H477.461V75H466.805ZM490.148 75V7.608H500.325L532.677 58.2V7.8H542.277V75.192H532.101L499.845 25.08V75H490.148ZM552.338 42.456C552.338 34.456 553.458 27.832 555.698 22.584C557.938 17.336 561.298 13.4 565.778 10.776C570.258 8.152 575.858 6.84 582.578 6.84C584.498 6.84 586.322 6.904 588.05 7.032C589.842 7.16 591.57 7.352 593.234 7.608C594.962 7.8 596.626 8.088 598.226 8.472C599.826 8.856 601.362 9.272 602.834 9.72L600.818 18.36C597.938 17.528 594.994 16.92 591.986 16.536C589.042 16.152 586.194 15.96 583.442 15.96C578.898 15.96 575.122 16.92 572.114 18.84C569.17 20.76 566.93 23.672 565.394 27.576C563.922 31.48 563.186 36.504 563.186 42.648C563.186 48.408 563.89 53.112 565.298 56.76C566.706 60.408 568.786 63.096 571.538 64.824C574.354 66.552 577.778 67.416 581.81 67.416C584.562 67.416 587.058 67.256 589.298 66.936C591.602 66.616 593.65 66.168 595.442 65.592V48.12H580.85V39.672H605.234V71.64C602.034 73.112 598.322 74.2 594.098 74.904C589.938 75.608 585.426 75.96 580.562 75.96C574.29 75.96 569.074 74.744 564.914 72.312C560.754 69.88 557.618 66.2 555.506 61.272C553.394 56.28 552.338 50.008 552.338 42.456Z" fill="#032B0D"/>
</g>
<defs>
<filter id="filter0_d_138_200" x="0.242188" y="0.840088" width="614.992" height="89.1199" filterUnits="userSpaceOnUse" color-interpolation-filters="sRGB">
<feFlood flood-opacity="0" result="BackgroundImageFix"/>
<feColorMatrix in="SourceAlpha" type="matrix" values="0 0 0 0 0 0 0 0 0 0 0 0 0 0 0 0 0 0 127 0" result="hardAlpha"/>
<feOffset dy="4"/>
<feGaussianBlur stdDeviation="5"/>
<feComposite in2="hardAlpha" operator="out"/>
<feColorMatrix type="matrix" values="0 0 0 0 0 0 0 0 0 0 0 0 0 0 0 0 0 0 0.5 0"/>
<feBlend mode="normal" in2="BackgroundImageFix" result="effect1_dropShadow_138_200"/>
<feBlend mode="normal" in="SourceGraphic" in2="effect1_dropShadow_138_200" result="shape"/>
</filter>
</defs>
</svg>
