<svg width="936" height="74" viewBox="0 0 936 74" fill="none" xmlns="http://www.w3.org/2000/svg">
<path d="M28.7895 73.1C26.1228 73.1 23.3228 72.9 20.3895 72.5C17.5228 72.1667 14.7895 71.6333 12.1895 70.9C9.58945 70.1667 7.25612 69.3 5.18945 68.3C3.38945 67.4333 2.12279 66.3 1.38945 64.9C0.65612 63.4333 0.389453 61.9 0.589453 60.3C0.789453 58.7 1.35612 57.3 2.28945 56.1C3.22279 54.8333 4.45612 54 5.98945 53.6C7.52279 53.1333 9.25612 53.3333 11.1895 54.2C13.7228 55.4 16.5895 56.3333 19.7895 57C22.9895 57.6667 25.9895 58 28.7895 58C33.1895 58 36.2561 57.4333 37.9895 56.3C39.7895 55.1 40.6895 53.6333 40.6895 51.9C40.6895 50.3667 40.0561 49.1333 38.7895 48.2C37.5895 47.2667 35.4228 46.4667 32.2895 45.8L20.5895 43.3C14.1895 41.9667 9.42279 39.6333 6.28945 36.3C3.15612 32.9667 1.58945 28.6667 1.58945 23.4C1.58945 19.9333 2.28945 16.8 3.68945 14C5.15612 11.1333 7.18945 8.7 9.78945 6.69999C12.4561 4.7 15.5895 3.16666 19.1895 2.09999C22.8561 0.966663 26.9228 0.399998 31.3895 0.399998C34.8561 0.399998 38.3561 0.799997 41.8895 1.59999C45.4895 2.33333 48.5895 3.46666 51.1895 5C52.7228 5.8 53.8228 6.9 54.4895 8.3C55.1561 9.7 55.4228 11.1667 55.2895 12.7C55.1561 14.1667 54.6228 15.4667 53.6895 16.6C52.8228 17.7333 51.6228 18.5 50.0895 18.9C48.6228 19.2333 46.8561 18.9667 44.7895 18.1C42.8561 17.2333 40.6561 16.6 38.1895 16.2C35.7895 15.7333 33.4561 15.5 31.1895 15.5C28.7228 15.5 26.6228 15.8 24.8895 16.4C23.1561 16.9333 21.8228 17.7333 20.8895 18.8C20.0228 19.8667 19.5895 21.1 19.5895 22.5C19.5895 23.9 20.1561 25.1 21.2895 26.1C22.4895 27.0333 24.6561 27.8333 27.7895 28.5L39.3895 31C45.8561 32.4 50.6895 34.7 53.8895 37.9C57.0895 41.1 58.6895 45.2667 58.6895 50.4C58.6895 53.8667 57.9895 57 56.5895 59.8C55.1895 62.6 53.1895 65 50.5895 67C47.9895 68.9333 44.8561 70.4333 41.1895 71.5C37.5228 72.5667 33.3895 73.1 28.7895 73.1ZM80.9262 72.9C77.9928 72.9 75.7262 72.1 74.1262 70.5C72.5262 68.8333 71.7262 66.5 71.7262 63.5V10C71.7262 6.93333 72.5262 4.6 74.1262 2.99999C75.7262 1.4 77.9928 0.599995 80.9262 0.599995C83.9262 0.599995 86.1928 1.4 87.7262 2.99999C89.3262 4.6 90.1262 6.93333 90.1262 10V63.5C90.1262 66.5 89.3595 68.8333 87.8262 70.5C86.2928 72.1 83.9928 72.9 80.9262 72.9ZM142.879 73.1C134.812 73.1 127.945 71.6 122.279 68.6C116.679 65.6 112.412 61.4 109.479 56C106.545 50.6 105.079 44.3 105.079 37.1C105.079 31.5 105.945 26.4667 107.679 22C109.479 17.4667 112.045 13.6 115.379 10.4C118.712 7.13333 122.779 4.66666 127.579 2.99999C132.445 1.26666 137.945 0.399998 144.079 0.399998C147.412 0.399998 150.812 0.733331 154.279 1.4C157.745 2 161.145 3.16666 164.479 4.9C166.212 5.7 167.379 6.83333 167.979 8.3C168.645 9.7 168.845 11.2 168.579 12.8C168.379 14.3333 167.812 15.7667 166.879 17.1C166.012 18.3667 164.812 19.2333 163.279 19.7C161.745 20.1 160.012 19.8667 158.079 19C156.079 18.0667 153.912 17.3667 151.579 16.9C149.245 16.3667 146.779 16.1 144.179 16.1C139.712 16.1 135.979 16.9 132.979 18.5C130.045 20.1 127.845 22.4667 126.379 25.6C124.912 28.7333 124.179 32.5667 124.179 37.1C124.179 43.9 125.845 49.0333 129.179 52.5C132.512 55.9667 137.445 57.7 143.979 57.7C145.979 57.7 148.145 57.5 150.479 57.1C152.879 56.7 155.279 56.1333 157.679 55.4L154.279 62.3V45.2H147.279C145.012 45.2 143.245 44.6333 141.979 43.5C140.779 42.3667 140.179 40.7667 140.179 38.7C140.179 36.6333 140.779 35.0667 141.979 34C143.245 32.8667 145.012 32.3 147.279 32.3H162.079C164.412 32.3 166.179 32.9333 167.379 34.2C168.645 35.4 169.279 37.1667 169.279 39.5V61.6C169.279 63.6 168.845 65.3 167.979 66.7C167.179 68.1 165.879 69.1 164.079 69.7C160.945 70.7667 157.545 71.6 153.879 72.2C150.212 72.8 146.545 73.1 142.879 73.1ZM194.186 72.9C191.386 72.9 189.252 72.1667 187.786 70.7C186.319 69.2333 185.586 67.0667 185.586 64.2V9.7C185.586 6.76666 186.319 4.53333 187.786 2.99999C189.252 1.4 191.186 0.599995 193.586 0.599995C195.719 0.599995 197.386 0.999996 198.586 1.8C199.786 2.6 201.119 3.93333 202.586 5.79999L234.286 45.4H231.486V9.2C231.486 6.4 232.186 4.26666 233.586 2.8C235.052 1.33333 237.186 0.599995 239.986 0.599995C242.786 0.599995 244.886 1.33333 246.286 2.8C247.752 4.26666 248.486 6.4 248.486 9.2V64.6C248.486 67.1333 247.819 69.1667 246.486 70.7C245.152 72.1667 243.352 72.9 241.086 72.9C238.819 72.9 237.019 72.5 235.686 71.7C234.419 70.8333 233.052 69.5 231.586 67.7L199.886 28H202.686V64.2C202.686 67.0667 201.952 69.2333 200.486 70.7C199.086 72.1667 196.986 72.9 194.186 72.9ZM268.667 72.9C266.6 72.9 264.867 72.4333 263.467 71.5C262.067 70.5 261.2 69.1667 260.867 67.5C260.533 65.7667 260.833 63.8333 261.767 61.7L286.667 8.09999C287.867 5.5 289.333 3.6 291.067 2.4C292.867 1.2 294.9 0.599995 297.167 0.599995C299.433 0.599995 301.4 1.2 303.067 2.4C304.8 3.6 306.3 5.5 307.567 8.09999L332.467 61.7C333.533 63.8333 333.9 65.7667 333.567 67.5C333.3 69.2333 332.467 70.5667 331.067 71.5C329.733 72.4333 328.067 72.9 326.067 72.9C323.4 72.9 321.333 72.3 319.867 71.1C318.467 69.9 317.2 67.9667 316.067 65.3L310.667 52.6L317.667 57.7H276.467L283.567 52.6L278.167 65.3C276.967 67.9667 275.733 69.9 274.467 71.1C273.2 72.3 271.267 72.9 268.667 72.9ZM296.967 20.7L285.367 48.4L282.567 43.6H311.667L308.867 48.4L297.167 20.7H296.967ZM363.526 72.9C360.593 72.9 358.326 72.1 356.726 70.5C355.126 68.8333 354.326 66.5333 354.326 63.6V16.5H338.626C336.16 16.5 334.26 15.8667 332.926 14.6C331.66 13.2667 331.026 11.4 331.026 8.99999C331.026 6.53333 331.66 4.66666 332.926 3.4C334.26 2.13333 336.16 1.5 338.626 1.5H388.426C390.893 1.5 392.76 2.13333 394.026 3.4C395.36 4.66666 396.026 6.53333 396.026 8.99999C396.026 11.4 395.36 13.2667 394.026 14.6C392.76 15.8667 390.893 16.5 388.426 16.5H372.726V63.6C372.726 66.5333 371.96 68.8333 370.426 70.5C368.893 72.1 366.593 72.9 363.526 72.9ZM437.282 73.1C432.148 73.1 427.615 72.4667 423.682 71.2C419.748 69.8667 416.415 67.9 413.682 65.3C411.015 62.7 408.982 59.4667 407.582 55.6C406.248 51.6667 405.582 47.1333 405.582 42V9.89999C405.582 6.83333 406.382 4.53333 407.982 2.99999C409.582 1.4 411.848 0.599995 414.782 0.599995C417.782 0.599995 420.048 1.4 421.582 2.99999C423.182 4.53333 423.982 6.83333 423.982 9.89999V42.2C423.982 47.3333 425.115 51.2 427.382 53.8C429.648 56.4 432.948 57.7 437.282 57.7C441.548 57.7 444.815 56.4 447.082 53.8C449.348 51.2 450.482 47.3333 450.482 42.2V9.89999C450.482 6.83333 451.248 4.53333 452.782 2.99999C454.382 1.4 456.648 0.599995 459.582 0.599995C462.515 0.599995 464.748 1.4 466.282 2.99999C467.815 4.53333 468.582 6.83333 468.582 9.89999V42C468.582 48.8667 467.382 54.6333 464.982 59.3C462.648 63.9 459.148 67.3667 454.482 69.7C449.815 71.9667 444.082 73.1 437.282 73.1ZM494.086 72.9C491.153 72.9 488.886 72.1 487.286 70.5C485.686 68.8333 484.886 66.5333 484.886 63.6V10.8C484.886 7.8 485.686 5.5 487.286 3.89999C488.953 2.3 491.253 1.5 494.186 1.5H518.786C526.786 1.5 532.953 3.46666 537.286 7.4C541.686 11.2667 543.886 16.6667 543.886 23.6C543.886 28.0667 542.886 31.9667 540.886 35.3C538.953 38.5667 536.12 41.1 532.386 42.9C528.72 44.6333 524.186 45.5 518.786 45.5L519.586 43.7H524.386C527.253 43.7 529.786 44.4 531.986 45.8C534.186 47.1333 536.02 49.2 537.486 52L542.486 61C543.553 62.9333 544.053 64.8333 543.986 66.7C543.92 68.5 543.186 70 541.786 71.2C540.453 72.3333 538.486 72.9 535.886 72.9C533.286 72.9 531.153 72.3667 529.486 71.3C527.886 70.2333 526.453 68.5667 525.186 66.3L516.086 49.6C515.286 48.1333 514.253 47.1333 512.986 46.6C511.786 46 510.386 45.7 508.786 45.7H503.286V63.6C503.286 66.5333 502.52 68.8333 500.986 70.5C499.453 72.1 497.153 72.9 494.086 72.9ZM503.286 32.7H515.486C519.02 32.7 521.72 32 523.586 30.6C525.453 29.2 526.386 27.0333 526.386 24.1C526.386 21.3 525.453 19.2 523.586 17.8C521.72 16.3333 519.02 15.6 515.486 15.6H503.286V32.7ZM569.092 72C565.958 72 563.558 71.2 561.892 69.6C560.292 67.9333 559.492 65.5667 559.492 62.5V11C559.492 7.93333 560.292 5.6 561.892 4C563.558 2.33333 565.958 1.5 569.092 1.5H602.992C605.392 1.5 607.192 2.1 608.392 3.3C609.592 4.5 610.192 6.23333 610.192 8.49999C610.192 10.8333 609.592 12.6333 608.392 13.9C607.192 15.1 605.392 15.7 602.992 15.7H577.092V29.1H600.792C603.125 29.1 604.892 29.7 606.092 30.9C607.358 32.1 607.992 33.8667 607.992 36.2C607.992 38.5333 607.358 40.3 606.092 41.5C604.892 42.7 603.125 43.3 600.792 43.3H577.092V57.8H602.992C605.392 57.8 607.192 58.4333 608.392 59.7C609.592 60.9 610.192 62.6333 610.192 64.9C610.192 67.2333 609.592 69 608.392 70.2C607.192 71.4 605.392 72 602.992 72H569.092ZM683.731 73.1C681.064 73.1 678.264 72.9 675.331 72.5C672.464 72.1667 669.731 71.6333 667.131 70.9C664.531 70.1667 662.198 69.3 660.131 68.3C658.331 67.4333 657.064 66.3 656.331 64.9C655.598 63.4333 655.331 61.9 655.531 60.3C655.731 58.7 656.298 57.3 657.231 56.1C658.164 54.8333 659.398 54 660.931 53.6C662.464 53.1333 664.198 53.3333 666.131 54.2C668.664 55.4 671.531 56.3333 674.731 57C677.931 57.6667 680.931 58 683.731 58C688.131 58 691.198 57.4333 692.931 56.3C694.731 55.1 695.631 53.6333 695.631 51.9C695.631 50.3667 694.998 49.1333 693.731 48.2C692.531 47.2667 690.364 46.4667 687.231 45.8L675.531 43.3C669.131 41.9667 664.364 39.6333 661.231 36.3C658.098 32.9667 656.531 28.6667 656.531 23.4C656.531 19.9333 657.231 16.8 658.631 14C660.098 11.1333 662.131 8.7 664.731 6.69999C667.398 4.7 670.531 3.16666 674.131 2.09999C677.798 0.966663 681.864 0.399998 686.331 0.399998C689.798 0.399998 693.298 0.799997 696.831 1.59999C700.431 2.33333 703.531 3.46666 706.131 5C707.664 5.8 708.764 6.9 709.431 8.3C710.098 9.7 710.364 11.1667 710.231 12.7C710.098 14.1667 709.564 15.4667 708.631 16.6C707.764 17.7333 706.564 18.5 705.031 18.9C703.564 19.2333 701.798 18.9667 699.731 18.1C697.798 17.2333 695.598 16.6 693.131 16.2C690.731 15.7333 688.398 15.5 686.131 15.5C683.664 15.5 681.564 15.8 679.831 16.4C678.098 16.9333 676.764 17.7333 675.831 18.8C674.964 19.8667 674.531 21.1 674.531 22.5C674.531 23.9 675.098 25.1 676.231 26.1C677.431 27.0333 679.598 27.8333 682.731 28.5L694.331 31C700.798 32.4 705.631 34.7 708.831 37.9C712.031 41.1 713.631 45.2667 713.631 50.4C713.631 53.8667 712.931 57 711.531 59.8C710.131 62.6 708.131 65 705.531 67C702.931 68.9333 699.798 70.4333 696.131 71.5C692.464 72.5667 688.331 73.1 683.731 73.1ZM757.868 73.1C752.734 73.1 748.201 72.4667 744.268 71.2C740.334 69.8667 737.001 67.9 734.268 65.3C731.601 62.7 729.568 59.4667 728.168 55.6C726.834 51.6667 726.168 47.1333 726.168 42V9.89999C726.168 6.83333 726.968 4.53333 728.568 2.99999C730.168 1.4 732.434 0.599995 735.368 0.599995C738.368 0.599995 740.634 1.4 742.168 2.99999C743.768 4.53333 744.568 6.83333 744.568 9.89999V42.2C744.568 47.3333 745.701 51.2 747.968 53.8C750.234 56.4 753.534 57.7 757.868 57.7C762.134 57.7 765.401 56.4 767.668 53.8C769.934 51.2 771.068 47.3333 771.068 42.2V9.89999C771.068 6.83333 771.834 4.53333 773.368 2.99999C774.968 1.4 777.234 0.599995 780.168 0.599995C783.101 0.599995 785.334 1.4 786.868 2.99999C788.401 4.53333 789.168 6.83333 789.168 9.89999V42C789.168 48.8667 787.968 54.6333 785.568 59.3C783.234 63.9 779.734 67.3667 775.068 69.7C770.401 71.9667 764.668 73.1 757.868 73.1ZM815.072 72C811.939 72 809.539 71.2 807.872 69.6C806.272 67.9333 805.472 65.5667 805.472 62.5V11C805.472 7.93333 806.272 5.6 807.872 4C809.539 2.33333 811.939 1.5 815.072 1.5H839.472C844.539 1.5 848.839 2.26666 852.372 3.8C855.972 5.26666 858.706 7.36666 860.572 10.1C862.439 12.8333 863.372 16.0333 863.372 19.7C863.372 23.8333 862.172 27.3667 859.772 30.3C857.439 33.2333 854.239 35.2333 850.172 36.3V34.7C854.972 35.5667 858.672 37.5 861.272 40.5C863.939 43.5 865.272 47.3333 865.272 52C865.272 58.2 863.039 63.1 858.572 66.7C854.172 70.2333 848.139 72 840.472 72H815.072ZM823.072 58.5H837.972C841.372 58.5 843.839 57.8667 845.372 56.6C846.972 55.2667 847.772 53.3 847.772 50.7C847.772 48.1 846.972 46.1667 845.372 44.9C843.839 43.6333 841.372 43 837.972 43H823.072V58.5ZM823.072 29.5H836.172C839.506 29.5 841.939 28.9 843.472 27.7C845.072 26.5 845.872 24.6667 845.872 22.2C845.872 19.7333 845.072 17.9333 843.472 16.8C841.939 15.6 839.506 15 836.172 15H823.072V29.5ZM905.887 73.1C903.22 73.1 900.42 72.9 897.487 72.5C894.62 72.1667 891.887 71.6333 889.287 70.9C886.687 70.1667 884.354 69.3 882.287 68.3C880.487 67.4333 879.22 66.3 878.487 64.9C877.754 63.4333 877.487 61.9 877.687 60.3C877.887 58.7 878.454 57.3 879.387 56.1C880.32 54.8333 881.554 54 883.087 53.6C884.62 53.1333 886.354 53.3333 888.287 54.2C890.82 55.4 893.687 56.3333 896.887 57C900.087 57.6667 903.087 58 905.887 58C910.287 58 913.354 57.4333 915.087 56.3C916.887 55.1 917.787 53.6333 917.787 51.9C917.787 50.3667 917.154 49.1333 915.887 48.2C914.687 47.2667 912.52 46.4667 909.387 45.8L897.687 43.3C891.287 41.9667 886.52 39.6333 883.387 36.3C880.254 32.9667 878.687 28.6667 878.687 23.4C878.687 19.9333 879.387 16.8 880.787 14C882.254 11.1333 884.287 8.7 886.887 6.69999C889.554 4.7 892.687 3.16666 896.287 2.09999C899.954 0.966663 904.02 0.399998 908.487 0.399998C911.954 0.399998 915.454 0.799997 918.987 1.59999C922.587 2.33333 925.687 3.46666 928.287 5C929.82 5.8 930.92 6.9 931.587 8.3C932.254 9.7 932.52 11.1667 932.387 12.7C932.254 14.1667 931.72 15.4667 930.787 16.6C929.92 17.7333 928.72 18.5 927.187 18.9C925.72 19.2333 923.954 18.9667 921.887 18.1C919.954 17.2333 917.754 16.6 915.287 16.2C912.887 15.7333 910.554 15.5 908.287 15.5C905.82 15.5 903.72 15.8 901.987 16.4C900.254 16.9333 898.92 17.7333 897.987 18.8C897.12 19.8667 896.687 21.1 896.687 22.5C896.687 23.9 897.254 25.1 898.387 26.1C899.587 27.0333 901.754 27.8333 904.887 28.5L916.487 31C922.954 32.4 927.787 34.7 930.987 37.9C934.187 41.1 935.787 45.2667 935.787 50.4C935.787 53.8667 935.087 57 933.687 59.8C932.287 62.6 930.287 65 927.687 67C925.087 68.9333 921.954 70.4333 918.287 71.5C914.62 72.5667 910.487 73.1 905.887 73.1Z" fill="#FFC700"/>
</svg>
