<svg width="275" height="94" viewBox="0 0 275 94" fill="none" xmlns="http://www.w3.org/2000/svg">
<path d="M38.11 93.536C34.8673 93.536 31.4113 93.28 27.742 92.768C24.0727 92.3413 20.5313 91.744 17.118 90.976C13.79 90.1227 10.8033 89.184 8.158 88.16C5.42733 87.0507 3.50733 85.472 2.398 83.424C1.28867 81.2907 0.861999 79.0293 1.118 76.64C1.374 74.2507 2.18467 72.1173 3.55 70.24C4.91533 68.3627 6.75 67.0827 9.054 66.4C11.358 65.632 13.9607 65.8453 16.862 67.04C19.8487 68.2347 23.3473 69.216 27.358 69.984C31.454 70.752 35.038 71.136 38.11 71.136C43.0593 71.136 46.43 70.5813 48.222 69.472C50.014 68.3627 50.91 67.0827 50.91 65.632C50.91 64.2667 50.27 63.1573 48.99 62.304C47.7953 61.3653 45.534 60.5547 42.206 59.872L26.846 56.544C18.5687 54.752 12.4247 51.68 8.414 47.328C4.40333 42.976 2.398 37.3867 2.398 30.56C2.398 25.952 3.33667 21.8133 5.214 18.144C7.17667 14.3893 9.90733 11.1893 13.406 8.544C16.9047 5.89866 21.086 3.85066 25.95 2.39999C30.814 0.949331 36.2327 0.223999 42.206 0.223999C46.2167 0.223999 50.4833 0.650665 55.006 1.504C59.5287 2.35733 63.4113 3.59466 66.654 5.216C68.958 6.32533 70.622 7.904 71.646 9.952C72.7553 12 73.2247 14.1333 73.054 16.352C72.8833 18.5707 72.158 20.576 70.878 22.368C69.6833 24.0747 67.9767 25.2693 65.758 25.952C63.5393 26.5493 60.8513 26.2933 57.694 25.184C55.5607 24.416 53.0007 23.8187 50.014 23.392C47.0273 22.88 44.2967 22.624 41.822 22.624C39.0913 22.624 36.7873 22.9227 34.91 23.52C33.0327 24.032 31.6247 24.8 30.686 25.824C29.7473 26.7627 29.278 27.872 29.278 29.152C29.278 30.2613 29.8753 31.2853 31.07 32.224C32.2647 33.0773 34.5687 33.8453 37.982 34.528L53.342 37.856C61.534 39.648 67.6353 42.6773 71.646 46.944C75.742 51.2107 77.79 56.672 77.79 63.328C77.79 67.936 76.8513 72.1173 74.974 75.872C73.0967 79.5413 70.4087 82.6987 66.91 85.344C63.4967 87.9893 59.358 90.0373 54.494 91.488C49.63 92.8533 44.1687 93.536 38.11 93.536ZM134.377 93.536C127.636 93.536 121.662 92.6827 116.457 90.976C111.252 89.2693 106.857 86.752 103.273 83.424C99.689 80.0107 97.001 75.744 95.209 70.624C93.417 65.504 92.521 59.5307 92.521 52.704V14.432C92.521 9.90933 93.7157 6.45333 96.105 4.064C98.4943 1.67466 101.908 0.479996 106.345 0.479996C110.782 0.479996 114.153 1.67466 116.457 4.064C118.846 6.45333 120.041 9.90933 120.041 14.432V53.216C120.041 58.9333 121.278 63.2853 123.753 66.272C126.228 69.1733 129.769 70.624 134.377 70.624C138.985 70.624 142.526 69.1733 145.001 66.272C147.476 63.2853 148.713 58.9333 148.713 53.216V14.432C148.713 9.90933 149.865 6.45333 152.169 4.064C154.558 1.67466 157.929 0.479996 162.281 0.479996C166.633 0.479996 169.961 1.67466 172.265 4.064C174.569 6.45333 175.721 9.90933 175.721 14.432V52.704C175.721 61.8347 174.142 69.4293 170.985 75.488C167.913 81.5467 163.305 86.0693 157.161 89.056C151.017 92.0427 143.422 93.536 134.377 93.536ZM208.989 92C204.381 92 200.84 90.8053 198.365 88.416C195.976 85.9413 194.781 82.4 194.781 77.792V15.968C194.781 11.36 195.976 7.86133 198.365 5.47199C200.84 2.99733 204.381 1.75999 208.989 1.75999H240.605C247.176 1.75999 252.765 2.74133 257.373 4.70399C261.981 6.58133 265.48 9.26933 267.869 12.768C270.344 16.2667 271.581 20.3627 271.581 25.056C271.581 30.2613 270.088 34.7413 267.101 38.496C264.2 42.2507 260.232 44.8107 255.197 46.176V44C261.256 45.28 265.906 47.84 269.149 51.68C272.392 55.4347 274.013 60.256 274.013 66.144C274.013 73.9947 271.112 80.2667 265.309 84.96C259.506 89.6533 251.656 92 241.757 92H208.989ZM221.021 72.032H237.917C241.501 72.032 244.061 71.392 245.597 70.112C247.218 68.7467 248.029 66.7413 248.029 64.096C248.029 61.4507 247.218 59.488 245.597 58.208C244.061 56.8427 241.501 56.16 237.917 56.16H221.021V72.032ZM221.021 36.192H235.485C239.069 36.192 241.629 35.6373 243.165 34.528C244.701 33.3333 245.469 31.456 245.469 28.896C245.469 26.336 244.701 24.5013 243.165 23.392C241.629 22.2827 239.069 21.728 235.485 21.728H221.021V36.192Z" fill="#FFF0E0"/>
</svg>
